<svg width="29" height="22" viewBox="0 0 29 22" fill="none" xmlns="http://www.w3.org/2000/svg">
<g clip-path="url(#clip0_101_95)">
<path d="M10.6443 1.15621C10.2768 1.15883 7.26593 1.24414 4.08706 3.61452C4.08706 3.61452 0.695557 9.73733 0.695557 17.275C0.695557 17.275 2.67349 20.6783 7.87887 20.8437C7.87887 20.8437 8.75037 19.8042 9.4565 18.9051C6.46662 18.0061 5.33525 16.1384 5.33525 16.1384C5.33525 16.1384 5.57149 16.3038 5.99412 16.5413C6.01774 16.5413 6.04006 16.5663 6.086 16.5886C6.15818 16.6345 6.22775 16.6595 6.29862 16.7067C6.88662 17.0375 7.47462 17.2973 8.018 17.5086C8.984 17.9116 10.1377 18.2646 11.4817 18.5245C13.2483 18.8553 15.3207 18.9734 17.5796 18.5495C18.7508 18.3315 19.8959 17.991 20.996 17.5336C21.9486 17.1738 22.8567 16.7057 23.7024 16.1384C23.7024 16.1384 22.5264 18.052 19.4407 18.9275C20.1468 19.8016 20.996 20.8161 20.996 20.8161C26.2001 20.6508 28.1793 17.2461 28.1793 17.2724C28.1793 9.73077 24.7878 3.61058 24.7878 3.61058C21.4199 1.08533 18.1925 1.15621 18.1925 1.15621L17.8631 1.53421C21.8662 2.73908 23.7273 4.51358 23.7273 4.51358C21.5307 3.31737 19.1245 2.55495 16.6398 2.26789C15.0573 2.09175 13.4594 2.10761 11.8807 2.31514C11.7402 2.31514 11.6221 2.34008 11.4791 2.36108C10.6548 2.45558 8.65324 2.73908 6.13324 3.85077C5.26306 4.22877 4.74331 4.51358 4.74331 4.51358C4.74331 4.51358 6.67793 2.64589 10.916 1.44102L10.6797 1.15621H10.643H10.6443ZM10.0445 9.87777C11.3859 9.87777 12.4713 11.0354 12.4464 12.4778C12.4464 13.9216 11.3859 15.0792 10.0445 15.0792C8.72543 15.0792 7.64262 13.9203 7.64262 12.4778C7.64262 11.0354 8.7005 9.87777 10.0445 9.87777ZM18.6414 9.87777C19.9591 9.87777 21.0432 11.0354 21.0432 12.4778C21.0432 13.9216 19.9814 15.0792 18.6414 15.0792C17.321 15.0792 16.2395 13.9203 16.2395 12.4778C16.2395 11.0354 17.2974 9.87777 18.6414 9.87777Z" fill="black"/>
</g>
<defs>
<clipPath id="clip0_101_95">
<rect width="28.875" height="21" fill="white" transform="translate(0 0.5)"/>
</clipPath>
</defs>
</svg>
