<svg width="20" height="20" viewBox="0 0 20 20" fill="none" xmlns="http://www.w3.org/2000/svg">
<path fill-rule="evenodd" clip-rule="evenodd" d="M7.72967 1.99268C8.82165 0.395014 11.1784 0.39502 12.2704 1.99268L12.7023 2.62463C15.4084 6.58385 17.7333 10.7905 19.6461 15.1881L19.7363 15.3956C20.4103 16.9453 19.392 18.705 17.7124 18.8927C12.5868 19.4656 7.41329 19.4656 2.28766 18.8927C0.608112 18.705 -0.410252 16.9453 0.263803 15.3956L0.354018 15.1881C2.26675 10.7905 4.59171 6.58384 7.29775 2.62463L7.72967 1.99268ZM11.0001 7.00005C11.0001 7.55233 10.5523 8.00005 10.0001 8.00005C9.44778 8.00005 9.00006 7.55233 9.00006 7.00005C9.00006 6.44776 9.44778 6.00005 10.0001 6.00005C10.5523 6.00005 11.0001 6.44776 11.0001 7.00005ZM10.0001 9.75005C10.4143 9.75005 10.7501 10.0858 10.7501 10.5V15.5C10.7501 15.9143 10.4143 16.25 10.0001 16.25C9.58585 16.25 9.25006 15.9143 9.25006 15.5V10.5C9.25006 10.0858 9.58585 9.75005 10.0001 9.75005Z" fill="#193BE2"/>
</svg>
