<svg width="29" height="21" viewBox="0 0 29 21" fill="none" xmlns="http://www.w3.org/2000/svg">
<path d="M10.6443 0.65645C10.2768 0.659075 7.26593 0.744388 4.08706 3.11476C4.08706 3.11476 0.695557 9.23758 0.695557 16.7753C0.695557 16.7753 2.67349 20.1786 7.87887 20.344C7.87887 20.344 8.75037 19.3044 9.4565 18.4054C6.46662 17.5063 5.33525 15.6386 5.33525 15.6386C5.33525 15.6386 5.57149 15.804 5.99412 16.0416C6.01774 16.0416 6.04006 16.0665 6.086 16.0888C6.15818 16.1348 6.22775 16.1597 6.29862 16.2069C6.88662 16.5377 7.47462 16.7976 8.018 17.0089C8.984 17.4118 10.1377 17.7649 11.4817 18.0248C13.2483 18.3555 15.3207 18.4736 17.5796 18.0497C18.7508 17.8317 19.8959 17.4912 20.996 17.0338C21.9486 16.6741 22.8567 16.2059 23.7024 15.6386C23.7024 15.6386 22.5264 17.5523 19.4407 18.4277C20.1468 19.3018 20.996 20.3164 20.996 20.3164C26.2001 20.151 28.1793 16.7464 28.1793 16.7726C28.1793 9.23101 24.7878 3.11083 24.7878 3.11083C21.4199 0.585575 18.1925 0.65645 18.1925 0.65645L17.8631 1.03445C21.8662 2.23933 23.7273 4.01383 23.7273 4.01383C21.5307 2.81761 19.1245 2.05519 16.6398 1.76814C15.0573 1.59199 13.4594 1.60786 11.8807 1.81539C11.7402 1.81539 11.6221 1.84033 11.4791 1.86133C10.6548 1.95583 8.65324 2.23933 6.13324 3.35101C5.26306 3.72901 4.74331 4.01383 4.74331 4.01383C4.74331 4.01383 6.67793 2.14614 10.916 0.941263L10.6797 0.65645H10.643H10.6443ZM10.0445 9.37801C11.3859 9.37801 12.4713 10.5356 12.4464 11.9781C12.4464 13.4218 11.3859 14.5794 10.0445 14.5794C8.72543 14.5794 7.64262 13.4205 7.64262 11.9781C7.64262 10.5356 8.7005 9.37801 10.0445 9.37801ZM18.6414 9.37801C19.9591 9.37801 21.0432 10.5356 21.0432 11.9781C21.0432 13.4218 19.9814 14.5794 18.6414 14.5794C17.321 14.5794 16.2395 13.4205 16.2395 11.9781C16.2395 10.5356 17.2974 9.37801 18.6414 9.37801Z" fill="white"/>
</svg>
