<svg width="23" height="22" viewBox="0 0 23 22" fill="none" xmlns="http://www.w3.org/2000/svg">
<path d="M13.1875 7.96897C13.1875 7.50298 12.8097 7.12522 12.3438 7.12522H5.59375C5.12776 7.12522 4.75 7.50298 4.75 7.96897C4.75 8.43496 5.12776 8.81272 5.59375 8.81272H12.3438C12.8097 8.81272 13.1875 8.43496 13.1875 7.96897Z" fill="white"/>
<path d="M12.0625 11.344C12.0625 10.878 11.6847 10.5002 11.2188 10.5002H5.59375C5.12776 10.5002 4.75 10.878 4.75 11.344C4.75 11.81 5.12776 12.1877 5.59375 12.1877H11.2188C11.6847 12.1877 12.0625 11.81 12.0625 11.344Z" fill="white"/>
<path d="M12.3438 13.8752C12.8097 13.8752 13.1875 14.253 13.1875 14.719C13.1875 15.185 12.8097 15.5627 12.3438 15.5627H5.59375C5.12776 15.5627 4.75 15.185 4.75 14.719C4.75 14.253 5.12776 13.8752 5.59375 13.8752H12.3438Z" fill="white"/>
<path fill-rule="evenodd" clip-rule="evenodd" d="M4.75 21.469H19.375C21.0836 21.469 22.4688 20.0839 22.4688 18.3752V12.1877C22.4688 11.7217 22.091 11.344 21.625 11.344H17.9688V2.56132C17.9688 0.959992 16.1587 0.0285292 14.8557 0.959282L14.6588 1.09994C13.7807 1.72712 12.5913 1.72502 11.7092 1.09489C10.2423 0.0471447 8.25768 0.0471447 6.79083 1.09489C5.90866 1.72502 4.71929 1.72712 3.84124 1.09994L3.64431 0.959282C2.34126 0.028529 0.53125 0.959993 0.53125 2.56132V17.2502C0.53125 19.5802 2.42005 21.469 4.75 21.469ZM7.77167 2.46807C8.65178 1.83942 9.84822 1.83942 10.7283 2.46807C12.1931 3.51434 14.1707 3.52234 15.6396 2.47312L15.8365 2.33246C16.0227 2.19949 16.2812 2.33256 16.2812 2.56132V18.3752C16.2812 18.8816 16.4029 19.3596 16.6186 19.7815H4.75C3.35203 19.7815 2.21875 18.6482 2.21875 17.2502V2.56132C2.21875 2.33256 2.47732 2.19949 2.66347 2.33246L2.8604 2.47312C4.32931 3.52234 6.30688 3.51434 7.77167 2.46807ZM17.9688 18.3752V13.0315H20.7812V18.3752C20.7812 19.1519 20.1516 19.7815 19.375 19.7815C18.5983 19.7815 17.9688 19.1519 17.9688 18.3752Z" fill="white"/>
</svg>
