<svg width="414" height="667" viewBox="0 0 414 667" fill="none" xmlns="http://www.w3.org/2000/svg">
<path d="M35.5113 573.666L26.2998 544.337H21.3234V573.666H6.29431V498.285H27.7821C44.2994 498.285 48.7463 506.856 48.7463 521.226C48.7463 529.273 47.4758 536.473 40.1701 541.025L51.1816 573.666H35.5113ZM27.6762 511.832H21.3234V530.784H27.6762C33.2879 530.784 33.7114 525.49 33.7114 521.255C33.7114 516.914 33.2879 511.832 27.6762 511.832Z" stroke="#F92A68" stroke-width="1.5"/>
<path d="M115.451 553.443C115.451 559.478 113.545 564.56 109.839 568.266C105.816 572.384 100.628 574.513 94.1689 574.513C87.7102 574.513 82.5279 572.395 78.5045 568.266C74.7987 564.56 72.8928 559.478 72.8928 553.443V498.285H87.9219V554.166C87.9219 559.143 90.7807 560.943 94.1689 560.943C97.557 560.943 100.416 559.143 100.416 554.166V498.285H115.451V553.443Z" stroke="#F92A68" stroke-width="1.5"/>
<path d="M181.52 551.314C181.52 566.454 173.285 574.501 160.238 574.501C152.085 574.501 147.109 571.113 143.727 566.854C138.433 560.384 138.115 550.443 138.115 535.937C138.115 521.432 138.433 511.479 143.727 505.026C147.109 500.791 152.085 497.379 160.238 497.379C166.591 497.379 171.355 499.491 175.061 502.991C179.179 507.109 181.202 512.938 181.532 519.82H166.485C166.485 516.75 165.744 510.926 160.238 510.926C157.379 510.926 156.003 512.197 155.156 513.867C153.462 517.361 153.144 526.808 153.144 535.89C153.144 544.973 153.462 554.419 155.156 557.913C156.003 559.607 157.379 560.854 160.238 560.854C165.214 560.854 166.485 556.196 166.485 552.066V544.337H160.238V532.161H181.52V551.314Z" stroke="#F92A68" stroke-width="1.5"/>
<path d="M246.107 551.314C246.107 566.454 237.872 574.501 224.825 574.501C216.672 574.501 211.696 571.113 208.308 566.854C203.014 560.384 202.696 550.443 202.696 535.937C202.696 521.432 203.014 511.479 208.308 505.026C211.696 500.791 216.672 497.379 224.825 497.379C231.178 497.379 235.942 499.491 239.648 502.991C243.766 507.109 245.789 512.938 246.119 519.82H231.072C231.072 516.75 230.331 510.926 224.825 510.926C221.966 510.926 220.59 512.197 219.743 513.867C218.049 517.361 217.731 526.808 217.731 535.89C217.731 544.973 218.049 554.419 219.743 557.913C220.59 559.607 221.966 560.854 224.825 560.854C229.801 560.854 231.072 556.196 231.072 552.066V544.337H224.825V532.161H246.107V551.314Z" stroke="#F92A68" stroke-width="1.5"/>
<path d="M269.483 573.666V498.285H304.188V511.814H284.541V528.873H301.482V542.402H284.541V560.137H304.235V573.666H269.483Z" stroke="#F92A68" stroke-width="1.5"/>
<path d="M365.01 566.36C361.622 570.278 356.963 573.666 348.493 573.666H327.211V498.285H348.493C356.963 498.285 361.622 501.673 365.01 505.585C370.304 511.408 370.622 522.102 370.622 535.867C370.622 549.549 370.304 560.431 365.01 566.36ZM353.787 515.114C352.834 513.103 351.034 511.832 348.175 511.832H342.246V560.137H348.175C351.034 560.137 352.834 558.866 353.787 556.854C355.481 553.36 355.587 544.255 355.587 535.89C355.587 527.526 355.587 518.608 353.787 515.114V515.114Z" stroke="#F92A68" stroke-width="1.5"/>
<path d="M35.5113 664.48L26.2998 635.152H21.3234V664.48H6.29431V589.1H27.7821C44.2994 589.1 48.7463 597.67 48.7463 612.04C48.7463 620.087 47.4758 627.287 40.1701 631.84L51.1816 664.48H35.5113ZM27.6762 602.646H21.3234V621.599H27.6762C33.2879 621.599 33.7114 616.305 33.7114 612.07C33.7114 607.729 33.2879 602.646 27.6762 602.646Z" stroke="#F92A68" stroke-width="1.5"/>
<path d="M115.451 644.257C115.451 650.292 113.545 655.375 109.839 659.08C105.816 663.198 100.628 665.327 94.1689 665.327C87.7102 665.327 82.5279 663.21 78.5045 659.08C74.7987 655.375 72.8928 650.292 72.8928 644.257V589.1H87.9219V644.981C87.9219 649.957 90.7807 651.757 94.1689 651.757C97.557 651.757 100.416 649.957 100.416 644.981V589.1H115.451V644.257Z" stroke="#F92A68" stroke-width="1.5"/>
<path d="M181.52 642.128C181.52 657.269 173.285 665.316 160.238 665.316C152.085 665.316 147.109 661.928 143.727 657.669C138.433 651.198 138.115 641.257 138.115 626.752C138.115 612.246 138.433 602.294 143.727 595.841C147.109 591.606 152.085 588.194 160.238 588.194C166.591 588.194 171.355 590.306 175.061 593.805C179.179 597.923 181.202 603.752 181.532 610.635H166.485C166.485 607.564 165.744 601.741 160.238 601.741C157.379 601.741 156.003 603.011 155.156 604.682C153.462 608.176 153.144 617.623 153.144 626.705C153.144 635.787 153.462 645.234 155.156 648.728C156.003 650.422 157.379 651.669 160.238 651.669C165.214 651.669 166.485 647.01 166.485 642.881V635.152H160.238V622.975H181.52V642.128Z" stroke="#F92A68" stroke-width="1.5"/>
<path d="M246.107 642.128C246.107 657.269 237.872 665.316 224.825 665.316C216.672 665.316 211.696 661.928 208.308 657.669C203.014 651.198 202.696 641.257 202.696 626.752C202.696 612.246 203.014 602.294 208.308 595.841C211.696 591.606 216.672 588.194 224.825 588.194C231.178 588.194 235.942 590.306 239.648 593.805C243.766 597.923 245.789 603.752 246.119 610.635H231.072C231.072 607.564 230.331 601.741 224.825 601.741C221.966 601.741 220.59 603.011 219.743 604.682C218.049 608.176 217.731 617.623 217.731 626.705C217.731 635.787 218.049 645.234 219.743 648.728C220.59 650.422 221.966 651.669 224.825 651.669C229.801 651.669 231.072 647.01 231.072 642.881V635.152H224.825V622.975H246.107V642.128Z" stroke="#F92A68" stroke-width="1.5"/>
<path d="M269.483 664.48V589.1H304.188V602.629H284.541V619.687H301.482V633.216H284.541V650.951H304.235V664.48H269.483Z" stroke="#F92A68" stroke-width="1.5"/>
<path d="M365.01 657.175C361.622 661.092 356.963 664.48 348.493 664.48H327.211V589.1H348.493C356.963 589.1 361.622 592.488 365.01 596.399C370.304 602.223 370.622 612.917 370.622 626.681C370.622 640.363 370.304 651.245 365.01 657.175ZM353.787 605.929C352.834 603.917 351.034 602.646 348.175 602.646H342.246V650.951H348.175C351.034 650.951 352.834 649.681 353.787 647.669C355.481 644.175 355.587 635.069 355.587 626.705C355.587 618.34 355.587 609.423 353.787 605.929V605.929Z" stroke="#F92A68" stroke-width="1.5"/>
<path d="M35.5113 624.789L26.2998 595.461H21.3234V624.789H6.29431V549.409H27.7821C44.2994 549.409 48.7463 557.979 48.7463 572.349C48.7463 580.396 47.4758 587.596 40.1701 592.149L51.1816 624.789H35.5113ZM27.6762 562.955H21.3234V581.908H27.6762C33.2879 581.908 33.7114 576.614 33.7114 572.379C33.7114 568.038 33.2879 562.955 27.6762 562.955Z" stroke="#F92A68" stroke-width="1.5"/>
<path d="M115.451 604.566C115.451 610.601 113.545 615.684 109.839 619.39C105.816 623.507 100.628 625.636 94.1689 625.636C87.7102 625.636 82.5279 623.519 78.5045 619.39C74.7987 615.684 72.8928 610.601 72.8928 604.566V549.409H87.9219V605.29C87.9219 610.266 90.7807 612.066 94.1689 612.066C97.557 612.066 100.416 610.266 100.416 605.29V549.409H115.451V604.566Z" stroke="#F92A68" stroke-width="1.5"/>
<path d="M181.52 602.437C181.52 617.578 173.285 625.625 160.238 625.625C152.085 625.625 147.109 622.237 143.727 617.978C138.433 611.507 138.115 601.566 138.115 587.061C138.115 572.555 138.433 562.603 143.727 556.15C147.109 551.915 152.085 548.503 160.238 548.503C166.591 548.503 171.355 550.615 175.061 554.115C179.179 558.232 181.202 564.061 181.532 570.944H166.485C166.485 567.873 165.744 562.05 160.238 562.05C157.379 562.05 156.003 563.32 155.156 564.991C153.462 568.485 153.144 577.932 153.144 587.014C153.144 596.096 153.462 605.543 155.156 609.037C156.003 610.731 157.379 611.978 160.238 611.978C165.214 611.978 166.485 607.319 166.485 603.19V595.461H160.238V583.285H181.52V602.437Z" stroke="#F92A68" stroke-width="1.5"/>
<path d="M246.107 602.437C246.107 617.578 237.872 625.625 224.825 625.625C216.672 625.625 211.696 622.237 208.308 617.978C203.014 611.507 202.696 601.566 202.696 587.061C202.696 572.555 203.014 562.603 208.308 556.15C211.696 551.915 216.672 548.503 224.825 548.503C231.178 548.503 235.942 550.615 239.648 554.115C243.766 558.232 245.789 564.061 246.119 570.944H231.072C231.072 567.873 230.331 562.05 224.825 562.05C221.966 562.05 220.59 563.32 219.743 564.991C218.049 568.485 217.731 577.932 217.731 587.014C217.731 596.096 218.049 605.543 219.743 609.037C220.59 610.731 221.966 611.978 224.825 611.978C229.801 611.978 231.072 607.319 231.072 603.19V595.461H224.825V583.285H246.107V602.437Z" stroke="#F92A68" stroke-width="1.5"/>
<path d="M269.483 624.789V549.409H304.188V562.938H284.541V579.996H301.482V593.525H284.541V611.26H304.235V624.789H269.483Z" stroke="#F92A68" stroke-width="1.5"/>
<path d="M365.01 617.484C361.622 621.401 356.963 624.789 348.493 624.789H327.211V549.409H348.493C356.963 549.409 361.622 552.797 365.01 556.709C370.304 562.532 370.622 573.226 370.622 586.99C370.622 600.672 370.304 611.554 365.01 617.484ZM353.787 566.238C352.834 564.226 351.034 562.955 348.175 562.955H342.246V611.26H348.175C351.034 611.26 352.834 609.99 353.787 607.978C355.481 604.484 355.587 595.378 355.587 587.014C355.587 578.649 355.587 569.732 353.787 566.238V566.238Z" stroke="#F92A68" stroke-width="1.5"/>
<path d="M30.8975 382.224V444.312H15.8632V382.224H3.1532V368.639H43.5957V382.224H30.8975Z" stroke="#26E47A" stroke-width="1.5" stroke-miterlimit="10"/>
<path d="M76.0238 444.312L73.5877 432.499H56.2174L53.7814 444.312H38.1057L57.4884 368.621H72.3168L91.6936 444.312H76.0238ZM64.9026 390.835L59.0772 418.902H70.728L64.9026 390.835Z" stroke="#26E47A" stroke-width="1.5" stroke-miterlimit="10"/>
<path d="M125.905 444.312L115.107 416.67L110.235 426.876V444.312H95.1948V368.621H110.235V401.148L124.528 368.621H139.568L124.528 400.085L142.004 444.312H125.905Z" stroke="#26E47A" stroke-width="1.5" stroke-miterlimit="10"/>
<path d="M145.499 444.312V368.621H180.216V382.206H160.516V399.334H177.463V412.919H160.516V430.727H180.216V444.312H145.499Z" stroke="#26E47A" stroke-width="1.5" stroke-miterlimit="10"/>
<path d="M222.924 437.508C219.535 441.76 214.557 445.186 206.401 445.186C198.246 445.186 193.268 441.784 189.878 437.508C184.583 431.011 184.265 421.029 184.265 406.464C184.265 391.898 184.583 381.905 189.878 375.425C193.268 371.173 198.246 367.747 206.401 367.747C214.557 367.747 219.535 371.149 222.924 375.425C228.22 381.798 228.538 392.005 228.538 406.464C228.538 420.923 228.22 431.129 222.924 437.508ZM211.485 384.35C210.638 382.649 209.261 381.397 206.401 381.397C203.542 381.397 202.165 382.673 201.317 384.35C199.623 387.858 199.305 397.344 199.305 406.464C199.305 415.583 199.623 425.069 201.317 428.577C202.165 430.278 203.542 431.53 206.401 431.53C209.261 431.53 210.638 430.255 211.485 428.577C213.18 425.069 213.498 415.583 213.498 406.464C213.498 397.344 213.18 387.858 211.485 384.35Z" stroke="#26E47A" stroke-width="1.5" stroke-miterlimit="10"/>
<path d="M262.114 444.312H246.438L229.597 368.621H246.12L254.276 422.092L262.514 368.621H279.037L262.114 444.312Z" stroke="#26E47A" stroke-width="1.5" stroke-miterlimit="10"/>
<path d="M282.344 444.312V368.621H317.061V382.206H297.384V399.334H314.33V412.919H297.384V430.727H317.084V444.312H282.344Z" stroke="#26E47A" stroke-width="1.5" stroke-miterlimit="10"/>
<path d="M352.566 444.312L343.352 414.862H338.397V444.312H323.333V368.621H344.834C361.357 368.621 365.806 377.227 365.806 391.656C365.806 399.736 364.535 406.966 357.227 411.537L368.242 444.282L352.566 444.312ZM344.728 382.224H338.397V401.254H344.752C350.366 401.254 350.789 395.938 350.789 391.686C350.754 387.327 350.342 382.224 344.728 382.224Z" stroke="#26E47A" stroke-width="1.5" stroke-miterlimit="10"/>
<path d="M30.8975 420.952V483.041H15.8632V420.952H3.1532V407.368H43.5957V420.952H30.8975Z" stroke="#FECC2F" stroke-width="1.5" stroke-miterlimit="10"/>
<path d="M76.0238 483.041L73.5877 471.228H56.2174L53.7814 483.041H38.1057L57.4884 407.35H72.3168L91.6936 483.041H76.0238ZM64.9026 429.564L59.0772 457.631H70.728L64.9026 429.564Z" stroke="#FECC2F" stroke-width="1.5" stroke-miterlimit="10"/>
<path d="M125.905 483.041L115.107 455.399L110.235 465.605V483.041H95.1948V407.35H110.235V439.877L124.528 407.35H139.568L124.528 438.814L142.004 483.041H125.905Z" stroke="#FECC2F" stroke-width="1.5" stroke-miterlimit="10"/>
<path d="M145.499 483.041V407.35H180.216V420.935H160.516V438.063H177.463V451.648H160.516V469.456H180.216V483.041H145.499Z" stroke="#FECC2F" stroke-width="1.5" stroke-miterlimit="10"/>
<path d="M222.924 476.237C219.535 480.489 214.557 483.915 206.401 483.915C198.246 483.915 193.268 480.513 189.878 476.237C184.583 469.74 184.265 459.758 184.265 445.193C184.265 430.627 184.583 420.634 189.878 414.154C193.268 409.902 198.246 406.476 206.401 406.476C214.557 406.476 219.535 409.878 222.924 414.154C228.22 420.527 228.538 430.734 228.538 445.193C228.538 459.652 228.22 469.858 222.924 476.237ZM211.485 423.079C210.638 421.378 209.261 420.126 206.401 420.126C203.542 420.126 202.165 421.402 201.317 423.079C199.623 426.587 199.305 436.073 199.305 445.193C199.305 454.312 199.623 463.798 201.317 467.306C202.165 469.007 203.542 470.26 206.401 470.26C209.261 470.26 210.638 468.984 211.485 467.306C213.18 463.798 213.498 454.312 213.498 445.193C213.498 436.073 213.18 426.587 211.485 423.079Z" stroke="#FECC2F" stroke-width="1.5" stroke-miterlimit="10"/>
<path d="M262.114 483.041H246.438L229.597 407.35H246.12L254.276 460.821L262.514 407.35H279.037L262.114 483.041Z" stroke="#FECC2F" stroke-width="1.5" stroke-miterlimit="10"/>
<path d="M282.344 483.041V407.35H317.061V420.935H297.384V438.063H314.33V451.648H297.384V469.456H317.084V483.041H282.344Z" stroke="#FECC2F" stroke-width="1.5" stroke-miterlimit="10"/>
<path d="M352.566 483.041L343.352 453.591H338.397V483.041H323.333V407.35H344.834C361.357 407.35 365.806 415.956 365.806 430.385C365.806 438.465 364.535 445.695 357.227 450.266L368.242 483.011L352.566 483.041ZM344.728 420.953H338.397V439.983H344.752C350.366 439.983 350.789 434.667 350.789 430.415C350.754 426.056 350.342 420.953 344.728 420.953Z" stroke="#FECC2F" stroke-width="1.5" stroke-miterlimit="10"/>
<path d="M30.7892 472.076V534.164H15.7549V472.076H3.04492V458.491H43.4874V472.076H30.7892Z" stroke="white" stroke-width="1.5" stroke-miterlimit="10"/>
<path d="M75.9156 534.164L73.4795 522.351H56.1091L53.6731 534.164H37.9974L57.3801 458.473H72.2085L91.5853 534.164H75.9156ZM64.7943 480.687L58.9689 508.755H70.6197L64.7943 480.687Z" stroke="white" stroke-width="1.5" stroke-miterlimit="10"/>
<path d="M125.796 534.164L114.999 506.522L110.127 516.728V534.164H95.0864V458.473H110.127V491L124.42 458.473H139.46L124.42 489.937L141.896 534.164H125.796Z" stroke="white" stroke-width="1.5" stroke-miterlimit="10"/>
<path d="M145.391 534.164V458.473H180.108V472.058H160.408V489.187H177.354V502.771H160.408V520.579H180.108V534.164H145.391Z" stroke="white" stroke-width="1.5" stroke-miterlimit="10"/>
<path d="M222.816 527.36C219.427 531.612 214.449 535.038 206.293 535.038C198.137 535.038 193.159 531.636 189.77 527.36C184.474 520.863 184.156 510.881 184.156 496.316C184.156 481.75 184.474 471.757 189.77 465.277C193.159 461.025 198.137 457.599 206.293 457.599C214.449 457.599 219.427 461.001 222.816 465.277C228.112 471.65 228.43 481.857 228.43 496.316C228.43 510.775 228.112 520.981 222.816 527.36ZM211.377 474.202C210.53 472.501 209.153 471.249 206.293 471.249C203.433 471.249 202.056 472.525 201.209 474.202C199.514 477.71 199.197 487.196 199.197 496.316C199.197 505.435 199.514 514.921 201.209 518.429C202.056 520.13 203.433 521.383 206.293 521.383C209.153 521.383 210.53 520.107 211.377 518.429C213.072 514.921 213.389 505.435 213.389 496.316C213.389 487.196 213.072 477.71 211.377 474.202Z" stroke="white" stroke-width="1.5" stroke-miterlimit="10"/>
<path d="M262.005 534.164H246.33L229.489 458.473H246.012L254.167 511.944L262.405 458.473H278.928L262.005 534.164Z" stroke="white" stroke-width="1.5" stroke-miterlimit="10"/>
<path d="M282.235 534.164V458.473H316.952V472.058H297.276V489.187H314.222V502.771H297.276V520.579H316.976V534.164H282.235Z" stroke="white" stroke-width="1.5" stroke-miterlimit="10"/>
<path d="M352.458 534.164L343.243 504.715H338.289V534.164H323.225V458.473H344.726C361.249 458.473 365.698 467.079 365.698 481.508C365.698 489.588 364.427 496.818 357.118 501.389L368.134 534.134L352.458 534.164ZM344.62 472.076H338.289V491.106H344.644C350.257 491.106 350.681 485.79 350.681 481.538C350.646 477.179 350.234 472.076 344.62 472.076Z" stroke="white" stroke-width="1.5" stroke-miterlimit="10"/>
<path d="M44.3791 366.33C44.0616 373.559 41.5221 379.619 37.6068 383.34C33.7974 387.061 29.4589 388.762 23.1099 388.762C14.962 388.762 9.9944 385.36 6.60825 381.084C1.3174 374.587 1 364.605 1 350.04C1 335.475 1.3174 325.481 6.60825 319.002C9.9944 314.749 14.962 311.323 23.1099 311.323C29.4589 311.323 33.7974 313.024 37.6068 316.739C41.5221 320.461 44.0734 326.414 44.3791 333.644H29.3413C29.2355 331.517 29.0239 329.391 28.1656 327.796C27.319 325.989 25.9434 324.926 23.0863 324.926C20.2293 324.926 18.8595 326.202 18.013 327.879C16.314 331.387 16.0025 340.873 16.0025 349.993C16.0025 359.112 16.314 368.598 18.013 372.106C18.8595 373.807 20.2293 375.059 23.0863 375.059C25.9434 375.059 27.319 373.878 28.1656 372.106C29.0121 370.512 29.2237 368.385 29.3413 366.259L44.3791 366.33Z" stroke="#FECC2F" stroke-width="1.5" stroke-miterlimit="10"/>
<path d="M78.558 381.107C75.1718 385.36 70.1985 388.786 62.0506 388.786C53.9026 388.786 48.9351 385.384 45.5489 381.107C40.2581 374.61 39.9407 364.629 39.9407 350.063C39.9407 335.498 40.2581 325.504 45.5489 319.025C48.9351 314.772 53.9085 311.347 62.0506 311.347C70.1926 311.347 75.1718 314.749 78.558 319.025C83.8488 325.398 84.1663 335.604 84.1663 350.063C84.1663 364.522 83.8488 374.728 78.558 381.107ZM67.1298 327.95C66.2832 326.249 64.9076 324.996 62.0506 324.996C59.1935 324.996 57.8237 326.272 56.9713 327.95C55.2783 331.458 54.9608 340.944 54.9608 350.063C54.9608 359.183 55.2783 368.668 56.9713 372.177C57.8237 373.878 59.1994 375.13 62.0506 375.13C64.9017 375.13 66.2832 373.854 67.1298 372.177C68.8229 368.668 69.1403 359.183 69.1403 350.063C69.1403 340.944 68.8229 331.458 67.1298 327.95Z" stroke="#FECC2F" stroke-width="1.5" stroke-miterlimit="10"/>
<path d="M121.414 387.912V348.468L113.184 374.409H105.459L97.4169 348.575V387.912H82.3967V312.221H95.618L109.374 349.319L123.13 312.221H136.463V387.912H121.414Z" stroke="#FECC2F" stroke-width="1.5" stroke-miterlimit="10"/>
<path d="M175.909 387.912V348.468L167.679 374.409H159.955L151.913 348.575V387.912H136.863V312.221H150.09L163.846 349.319L177.603 312.221H190.936V387.912H175.909Z" stroke="#FECC2F" stroke-width="1.5" stroke-miterlimit="10"/>
<path d="M233.368 367.605C233.368 373.665 231.464 378.768 227.76 382.489C223.739 386.624 218.554 388.762 212.099 388.762C205.644 388.762 200.459 386.636 196.438 382.489C192.735 378.768 190.83 373.665 190.83 367.605V312.221H205.856V368.332C205.856 373.329 208.713 375.136 212.099 375.136C215.485 375.136 218.342 373.329 218.342 368.332V312.221H233.368V367.605Z" stroke="#FECC2F" stroke-width="1.5" stroke-miterlimit="10"/>
<path d="M264.267 387.912L248.288 350.914V387.912H233.262V312.221H246.384L262.045 349.213V312.221H277.071V387.912H264.267Z" stroke="#FECC2F" stroke-width="1.5" stroke-miterlimit="10"/>
<path d="M277.494 387.912V312.221H292.52V387.912H277.494Z" stroke="#FECC2F" stroke-width="1.5" stroke-miterlimit="10"/>
<path d="M316.958 325.824V387.912H301.938V325.824H289.24V312.239H329.656V325.824H316.958Z" stroke="#FECC2F" stroke-width="1.5" stroke-miterlimit="10"/>
<path d="M355.052 359.419V387.912H340.032V359.419L324.688 312.221H341.19L347.539 339.644L353.888 312.221H370.396L355.052 359.419Z" stroke="#FECC2F" stroke-width="1.5" stroke-miterlimit="10"/>
<path d="M44.3791 328.708C44.0616 335.888 41.5221 341.906 37.6068 345.602C33.7974 349.297 29.4589 350.987 23.1099 350.987C14.962 350.987 9.9944 347.608 6.60825 343.361C1.3174 336.908 1 326.995 1 312.53C1 298.064 1.3174 288.139 6.60825 281.704C9.9944 277.48 14.962 274.078 23.1099 274.078C29.4589 274.078 33.7974 275.768 37.6068 279.457C41.5221 283.153 44.0734 289.066 44.3791 296.246H29.3413C29.2355 294.134 29.0239 292.022 28.1656 290.438C27.319 288.643 25.9434 287.587 23.0863 287.587C20.2293 287.587 18.8595 288.855 18.013 290.52C16.314 294.005 16.0025 303.426 16.0025 312.483C16.0025 321.54 16.314 330.96 18.013 334.445C18.8595 336.134 20.2293 337.378 23.0863 337.378C25.9434 337.378 27.319 336.205 28.1656 334.445C29.0121 332.861 29.2237 330.749 29.3413 328.637L44.3791 328.708Z" stroke="#24CDFD" stroke-width="1.5" stroke-miterlimit="10"/>
<path d="M78.558 343.384C75.1718 347.608 70.1985 351.01 62.0506 351.01C53.9026 351.01 48.9351 347.631 45.5489 343.384C40.2581 336.932 39.9407 327.018 39.9407 312.553C39.9407 298.088 40.2581 288.162 45.5489 281.727C48.9351 277.504 53.9085 274.102 62.0506 274.102C70.1926 274.102 75.1718 277.48 78.558 281.727C83.8488 288.057 84.1663 298.193 84.1663 312.553C84.1663 326.913 83.8488 337.049 78.558 343.384ZM67.1298 290.591C66.2832 288.901 64.9076 287.658 62.0506 287.658C59.1935 287.658 57.8237 288.925 56.9713 290.591C55.2783 294.075 54.9608 303.496 54.9608 312.553C54.9608 321.61 55.2783 331.031 56.9713 334.515C57.8237 336.205 59.1994 337.448 62.0506 337.448C64.9017 337.448 66.2832 336.181 67.1298 334.515C68.8229 331.031 69.1403 321.61 69.1403 312.553C69.1403 303.496 68.8229 294.075 67.1298 290.591Z" stroke="#24CDFD" stroke-width="1.5" stroke-miterlimit="10"/>
<path d="M121.414 350.142V310.969L113.184 336.733H105.459L97.4169 311.075V350.142H82.3967V274.97H95.618L109.374 311.814L123.13 274.97H136.463V350.142H121.414Z" stroke="#24CDFD" stroke-width="1.5" stroke-miterlimit="10"/>
<path d="M175.909 350.142V310.969L167.679 336.733H159.955L151.913 311.075V350.142H136.863V274.97H150.09L163.846 311.814L177.603 274.97H190.936V350.142H175.909Z" stroke="#24CDFD" stroke-width="1.5" stroke-miterlimit="10"/>
<path d="M233.368 329.975C233.368 335.993 231.464 341.062 227.76 344.757C223.739 348.863 218.554 350.987 212.099 350.987C205.644 350.987 200.459 348.875 196.438 344.757C192.735 341.062 190.83 335.993 190.83 329.975V274.97H205.856V330.696C205.856 335.659 208.713 337.454 212.099 337.454C215.485 337.454 218.342 335.659 218.342 330.696V274.97H233.368V329.975Z" stroke="#24CDFD" stroke-width="1.5" stroke-miterlimit="10"/>
<path d="M264.267 350.142L248.288 313.398V350.142H233.262V274.97H246.384L262.045 311.708V274.97H277.071V350.142H264.267Z" stroke="#24CDFD" stroke-width="1.5" stroke-miterlimit="10"/>
<path d="M277.494 350.142V274.97H292.52V350.142H277.494Z" stroke="#24CDFD" stroke-width="1.5" stroke-miterlimit="10"/>
<path d="M316.958 288.479V350.142H301.938V288.479H289.24V274.987H329.656V288.479H316.958Z" stroke="#24CDFD" stroke-width="1.5" stroke-miterlimit="10"/>
<path d="M355.052 321.845V350.142H340.032V321.845L324.688 274.97H341.19L347.539 302.205L353.888 274.97H370.396L355.052 321.845Z" stroke="#24CDFD" stroke-width="1.5" stroke-miterlimit="10"/>
<path d="M47.0214 288.01V248.567L38.7968 274.508H31.0422L23.0057 248.673V288.01H7.99585V212.319H21.2139L34.9548 249.418L48.7015 212.319H62.0253V288.01H47.0214Z" stroke="white" stroke-width="1.5"/>
<path d="M119.127 281.206C115.743 285.458 110.773 288.884 102.631 288.884C94.4888 288.884 89.5188 285.482 86.135 281.206C80.8478 274.708 80.5305 264.727 80.5305 250.161C80.5305 235.596 80.8478 225.603 86.135 219.123C89.5188 214.871 94.4888 211.445 102.631 211.445C110.773 211.445 115.743 214.847 119.127 219.123C124.414 225.496 124.732 235.703 124.732 250.161C124.732 264.62 124.414 274.827 119.127 281.206ZM107.707 228.048C106.861 226.347 105.486 225.095 102.631 225.095C99.776 225.095 98.4013 226.37 97.5554 228.048C95.8635 231.556 95.5462 241.042 95.5462 250.161C95.5462 259.281 95.8635 268.767 97.5554 272.275C98.4013 273.976 99.776 275.228 102.631 275.228C105.486 275.228 106.861 273.952 107.707 272.275C109.399 268.767 109.716 259.281 109.716 250.161C109.716 241.042 109.399 231.556 107.707 228.048Z" stroke="white" stroke-width="1.5"/>
<path d="M179.613 281.206C176.229 285.458 171.259 288.884 163.117 288.884C154.975 288.884 150.005 285.482 146.621 281.206C141.334 274.708 141.016 264.727 141.016 250.161C141.016 235.596 141.334 225.603 146.621 219.123C150.005 214.871 154.975 211.445 163.117 211.445C171.259 211.445 176.229 214.847 179.613 219.123C184.9 225.496 185.217 235.703 185.217 250.161C185.217 264.62 184.9 274.827 179.613 281.206ZM168.193 228.048C167.347 226.347 165.972 225.095 163.117 225.095C160.262 225.095 158.887 226.37 158.041 228.048C156.349 231.556 156.032 241.042 156.032 250.161C156.032 259.281 156.349 268.767 158.041 272.275C158.887 273.976 160.262 275.228 163.117 275.228C165.972 275.228 167.347 273.952 168.193 272.275C169.885 268.767 170.202 259.281 170.202 250.161C170.202 241.042 169.885 231.556 168.193 228.048Z" stroke="white" stroke-width="1.5"/>
<path d="M240.099 281.206C236.715 285.458 231.745 288.884 223.603 288.884C215.46 288.884 210.49 285.482 207.107 281.206C201.819 274.708 201.502 264.727 201.502 250.161C201.502 235.596 201.819 225.603 207.107 219.123C210.49 214.871 215.46 211.445 223.603 211.445C231.745 211.445 236.715 214.847 240.099 219.123C245.386 225.496 245.703 235.703 245.703 250.161C245.703 264.62 245.386 274.827 240.099 281.206ZM228.678 228.048C227.833 226.347 226.458 225.095 223.603 225.095C220.748 225.095 219.373 226.37 218.527 228.048C216.835 231.556 216.518 241.042 216.518 250.161C216.518 259.281 216.835 268.767 218.527 272.275C219.373 273.976 220.748 275.228 223.603 275.228C226.458 275.228 227.833 273.952 228.678 272.275C230.37 268.767 230.688 259.281 230.688 250.161C230.688 241.042 230.37 231.556 228.678 228.048V228.048Z" stroke="white" stroke-width="1.5"/>
<path d="M300.584 281.206C297.201 285.458 292.231 288.884 284.088 288.884C275.946 288.884 270.976 285.482 267.592 281.206C262.305 274.708 261.988 264.727 261.988 250.161C261.988 235.596 262.305 225.603 267.592 219.123C270.976 214.871 275.946 211.445 284.088 211.445C292.231 211.445 297.201 214.847 300.584 219.123C305.872 225.496 306.189 235.703 306.189 250.161C306.189 264.62 305.872 274.827 300.584 281.206ZM289.164 228.048C288.318 226.347 286.943 225.095 284.088 225.095C281.233 225.095 279.859 226.37 279.013 228.048C277.321 231.556 277.003 241.042 277.003 250.161C277.003 259.281 277.321 268.767 279.013 272.275C279.859 273.976 281.233 275.228 284.088 275.228C286.943 275.228 288.318 273.952 289.164 272.275C290.856 268.767 291.173 259.281 291.173 250.161C291.173 241.042 290.856 231.556 289.164 228.048Z" stroke="white" stroke-width="1.5"/>
<path d="M355.677 288.01L339.71 251.012V288.01H324.694V212.319H337.818L353.469 249.311V212.319H368.484V288.01H355.677Z" stroke="white" stroke-width="1.5"/>
<path d="M47.0214 185.394V146.221L38.7968 171.984H31.0422L23.0057 146.327V185.394H7.99585V110.222H21.2139L34.9548 147.066L48.7015 110.222H62.0253V185.394H47.0214Z" stroke="#26E47A" stroke-width="1.5"/>
<path d="M119.127 178.636C115.743 182.86 110.773 186.262 102.631 186.262C94.4888 186.262 89.5188 182.883 86.135 178.636C80.8478 172.184 80.5305 162.27 80.5305 147.805C80.5305 133.339 80.8478 123.414 86.135 116.979C89.5188 112.756 94.4888 109.354 102.631 109.354C110.773 109.354 115.743 112.732 119.127 116.979C124.414 123.309 124.732 133.445 124.732 147.805C124.732 162.165 124.414 172.301 119.127 178.636ZM107.707 125.843C106.861 124.153 105.486 122.91 102.631 122.91C99.776 122.91 98.4013 124.177 97.5554 125.843C95.8635 129.327 95.5462 138.748 95.5462 147.805C95.5462 156.862 95.8635 166.283 97.5554 169.767C98.4013 171.456 99.776 172.7 102.631 172.7C105.486 172.7 106.861 171.433 107.707 169.767C109.399 166.283 109.716 156.862 109.716 147.805C109.716 138.748 109.399 129.327 107.707 125.843Z" stroke="#26E47A" stroke-width="1.5"/>
<path d="M179.613 178.636C176.229 182.86 171.259 186.262 163.117 186.262C154.975 186.262 150.005 182.883 146.621 178.636C141.334 172.184 141.016 162.27 141.016 147.805C141.016 133.339 141.334 123.414 146.621 116.979C150.005 112.756 154.975 109.354 163.117 109.354C171.259 109.354 176.229 112.732 179.613 116.979C184.9 123.309 185.217 133.445 185.217 147.805C185.217 162.165 184.9 172.301 179.613 178.636ZM168.193 125.843C167.347 124.153 165.972 122.91 163.117 122.91C160.262 122.91 158.887 124.177 158.041 125.843C156.349 129.327 156.032 138.748 156.032 147.805C156.032 156.862 156.349 166.283 158.041 169.767C158.887 171.456 160.262 172.7 163.117 172.7C165.972 172.7 167.347 171.433 168.193 169.767C169.885 166.283 170.202 156.862 170.202 147.805C170.202 138.748 169.885 129.327 168.193 125.843Z" stroke="#26E47A" stroke-width="1.5"/>
<path d="M240.099 178.636C236.715 182.86 231.745 186.262 223.603 186.262C215.46 186.262 210.49 182.883 207.107 178.636C201.819 172.184 201.502 162.27 201.502 147.805C201.502 133.339 201.819 123.414 207.107 116.979C210.49 112.756 215.46 109.354 223.603 109.354C231.745 109.354 236.715 112.732 240.099 116.979C245.386 123.309 245.703 133.445 245.703 147.805C245.703 162.165 245.386 172.301 240.099 178.636ZM228.678 125.843C227.833 124.153 226.458 122.91 223.603 122.91C220.748 122.91 219.373 124.177 218.527 125.843C216.835 129.327 216.518 138.748 216.518 147.805C216.518 156.862 216.835 166.283 218.527 169.767C219.373 171.456 220.748 172.7 223.603 172.7C226.458 172.7 227.833 171.433 228.678 169.767C230.37 166.283 230.688 156.862 230.688 147.805C230.688 138.748 230.37 129.327 228.678 125.843V125.843Z" stroke="#26E47A" stroke-width="1.5"/>
<path d="M300.584 178.636C297.201 182.86 292.231 186.262 284.088 186.262C275.946 186.262 270.976 182.883 267.592 178.636C262.305 172.184 261.988 162.27 261.988 147.805C261.988 133.339 262.305 123.414 267.592 116.979C270.976 112.756 275.946 109.354 284.088 109.354C292.231 109.354 297.201 112.732 300.584 116.979C305.872 123.309 306.189 133.445 306.189 147.805C306.189 162.165 305.872 172.301 300.584 178.636ZM289.164 125.843C288.318 124.153 286.943 122.91 284.088 122.91C281.233 122.91 279.859 124.177 279.013 125.843C277.321 129.327 277.003 138.748 277.003 147.805C277.003 156.862 277.321 166.283 279.013 169.767C279.859 171.456 281.233 172.7 284.088 172.7C286.943 172.7 288.318 171.433 289.164 169.767C290.856 166.283 291.173 156.862 291.173 147.805C291.173 138.748 290.856 129.327 289.164 125.843Z" stroke="#26E47A" stroke-width="1.5"/>
<path d="M355.677 185.394L339.71 148.65V185.394H324.694V110.222H337.818L353.469 146.96V110.222H368.484V185.394H355.677Z" stroke="#26E47A" stroke-width="1.5"/>
<path d="M47.0214 77.5648V38.1217L38.7968 64.0628H31.0422L23.0057 38.2281V77.5648H7.99585V1.87402H21.2139L34.9548 38.9723L48.7015 1.87402H62.0253V77.5648H47.0214Z" stroke="#34FBEB" stroke-width="1.5"/>
<path d="M119.127 70.7607C115.743 75.0133 110.773 78.4391 102.631 78.4391C94.4888 78.4391 89.5188 75.037 86.135 70.7607C80.8478 64.2637 80.5305 54.2818 80.5305 39.7166C80.5305 25.1514 80.8478 15.1577 86.135 8.67835C89.5188 4.42572 94.4888 1 102.631 1C110.773 1 115.743 4.4021 119.127 8.67835C124.414 15.0514 124.732 25.2577 124.732 39.7166C124.732 54.1755 124.414 64.3818 119.127 70.7607ZM107.707 17.6029C106.861 15.9019 105.486 14.6497 102.631 14.6497C99.776 14.6497 98.4013 15.9255 97.5554 17.6029C95.8635 21.1114 95.5462 30.5971 95.5462 39.7166C95.5462 48.8361 95.8635 58.3218 97.5554 61.8302C98.4013 63.5313 99.776 64.7834 102.631 64.7834C105.486 64.7834 106.861 63.5076 107.707 61.8302C109.399 58.3218 109.716 48.8361 109.716 39.7166C109.716 30.5971 109.399 21.1114 107.707 17.6029Z" stroke="#34FBEB" stroke-width="1.5"/>
<path d="M179.613 70.7607C176.229 75.0133 171.259 78.4391 163.117 78.4391C154.975 78.4391 150.005 75.037 146.621 70.7607C141.334 64.2637 141.016 54.2818 141.016 39.7166C141.016 25.1514 141.334 15.1577 146.621 8.67835C150.005 4.42572 154.975 1 163.117 1C171.259 1 176.229 4.4021 179.613 8.67835C184.9 15.0514 185.217 25.2577 185.217 39.7166C185.217 54.1755 184.9 64.3818 179.613 70.7607ZM168.193 17.6029C167.347 15.9019 165.972 14.6497 163.117 14.6497C160.262 14.6497 158.887 15.9255 158.041 17.6029C156.349 21.1114 156.032 30.5971 156.032 39.7166C156.032 48.8361 156.349 58.3218 158.041 61.8302C158.887 63.5313 160.262 64.7834 163.117 64.7834C165.972 64.7834 167.347 63.5076 168.193 61.8302C169.885 58.3218 170.202 48.8361 170.202 39.7166C170.202 30.5971 169.885 21.1114 168.193 17.6029Z" stroke="#34FBEB" stroke-width="1.5"/>
<path d="M240.099 70.7607C236.715 75.0133 231.745 78.4391 223.603 78.4391C215.46 78.4391 210.49 75.037 207.107 70.7607C201.819 64.2637 201.502 54.2818 201.502 39.7166C201.502 25.1514 201.819 15.1577 207.107 8.67835C210.49 4.42572 215.46 1 223.603 1C231.745 1 236.715 4.4021 240.099 8.67835C245.386 15.0514 245.703 25.2577 245.703 39.7166C245.703 54.1755 245.386 64.3818 240.099 70.7607ZM228.678 17.6029C227.833 15.9019 226.458 14.6497 223.603 14.6497C220.748 14.6497 219.373 15.9255 218.527 17.6029C216.835 21.1114 216.518 30.5971 216.518 39.7166C216.518 48.8361 216.835 58.3218 218.527 61.8302C219.373 63.5313 220.748 64.7834 223.603 64.7834C226.458 64.7834 227.833 63.5076 228.678 61.8302C230.37 58.3218 230.688 48.8361 230.688 39.7166C230.688 30.5971 230.37 21.1114 228.678 17.6029V17.6029Z" stroke="#34FBEB" stroke-width="1.5"/>
<path d="M300.584 70.7607C297.201 75.0133 292.231 78.4391 284.088 78.4391C275.946 78.4391 270.976 75.037 267.592 70.7607C262.305 64.2637 261.988 54.2818 261.988 39.7166C261.988 25.1514 262.305 15.1577 267.592 8.67835C270.976 4.42572 275.946 1 284.088 1C292.231 1 297.201 4.4021 300.584 8.67835C305.872 15.0514 306.189 25.2577 306.189 39.7166C306.189 54.1755 305.872 64.3818 300.584 70.7607ZM289.164 17.6029C288.318 15.9019 286.943 14.6497 284.088 14.6497C281.233 14.6497 279.859 15.9255 279.013 17.6029C277.321 21.1114 277.003 30.5971 277.003 39.7166C277.003 48.8361 277.321 58.3218 279.013 61.8302C279.859 63.5313 281.233 64.7834 284.088 64.7834C286.943 64.7834 288.318 63.5076 289.164 61.8302C290.856 58.3218 291.173 48.8361 291.173 39.7166C291.173 30.5971 290.856 21.1114 289.164 17.6029Z" stroke="#34FBEB" stroke-width="1.5"/>
<path d="M355.677 77.5648L339.71 40.567V77.5648H324.694V1.87402H337.818L353.469 38.8659V1.87402H368.484V77.5648H355.677Z" stroke="#34FBEB" stroke-width="1.5"/>
<path d="M55.9996 286.545C57.323 288.414 58.8229 289.127 60.5876 289.127C64.205 289.127 66.7637 286.189 67.8176 280.847L76.7289 235.712H88.5518L79.6405 280.847C78.2288 287.969 76.4642 291.728 73.3761 294.825C69.4057 298.653 65.2638 299.811 60.3229 299.811C53.6173 299.811 49.4705 297.407 47 293.222L55.9996 286.545Z" fill="#FD5D91" stroke="#FD5D91"/>
<path d="M96.4926 239.981C99.9238 236.519 103.639 235 109.639 235C116.256 235 120.05 237.31 122.168 241.138C123.844 243.987 124.197 246.302 124.197 250.309C124.197 254.226 123.315 260.201 121.815 267.403C118.021 285.655 116.256 290.73 112.198 294.825C108.766 298.288 105.051 299.811 99.0513 299.811C92.4339 299.811 88.64 297.496 86.5225 293.668C84.8461 290.819 84.4932 288.504 84.4932 284.497C84.4932 280.58 85.3755 274.605 86.8754 267.403C90.6693 249.24 92.4339 244.076 96.4926 239.981ZM96.3161 284.319C96.3161 287.257 97.2964 289.127 100.198 289.127C100.914 289.14 101.625 288.995 102.28 288.703C102.935 288.411 103.519 287.978 103.992 287.435C106.021 285.388 107.423 280.758 109.992 267.403C111.139 261.171 112.374 254.315 112.374 250.487C112.374 247.549 111.394 245.679 108.492 245.679C107.776 245.666 107.066 245.811 106.41 246.103C105.755 246.395 105.171 246.828 104.698 247.371C102.669 249.418 101.267 254.048 98.6983 267.403C97.5513 273.635 96.3161 280.491 96.3161 284.319Z" fill="#FD5D91" stroke="#FD5D91"/>
<path d="M133.02 235.712H144.843L132.314 299.098H120.482L133.02 235.712Z" fill="#FD5D91" stroke="#FD5D91"/>
<path d="M151.549 235.712H161.166L167.538 267.863L173.45 235.712H185.273L172.724 299.098H163.548L157.107 267.047L150.843 299.098H139.02L151.549 235.712Z" fill="#FD5D91" stroke="#FD5D91"/>
<path d="M59.9996 282.545C61.323 284.414 62.8229 285.127 64.5876 285.127C68.205 285.127 70.7637 282.189 71.8176 276.847L80.7289 231.712H92.5518L83.6405 276.847C82.2288 283.969 80.4642 287.728 77.3761 290.825C73.4057 294.653 69.2638 295.811 64.3229 295.811C57.6173 295.811 53.4705 293.407 51 289.222L59.9996 282.545Z" fill="#193BE3"/>
<path d="M100.493 235.981C103.924 232.519 107.639 231 113.639 231C120.256 231 124.05 233.31 126.168 237.138C127.844 239.987 128.197 242.302 128.197 246.309C128.197 250.226 127.315 256.201 125.815 263.403C122.021 281.655 120.256 286.73 116.198 290.825C112.766 294.288 109.051 295.811 103.051 295.811C96.4339 295.811 92.64 293.496 90.5225 289.668C88.8461 286.819 88.4932 284.504 88.4932 280.497C88.4932 276.58 89.3755 270.605 90.8754 263.403C94.6693 245.24 96.4339 240.076 100.493 235.981ZM100.316 280.319C100.316 283.257 101.296 285.127 104.198 285.127C104.914 285.14 105.625 284.995 106.28 284.703C106.935 284.411 107.519 283.978 107.992 283.435C110.021 281.388 111.423 276.758 113.992 263.403C115.139 257.171 116.374 250.315 116.374 246.487C116.374 243.549 115.394 241.679 112.492 241.679C111.776 241.666 111.066 241.811 110.41 242.103C109.755 242.395 109.171 242.828 108.698 243.371C106.669 245.418 105.267 250.048 102.698 263.403C101.551 269.635 100.316 276.491 100.316 280.319Z" fill="#193BE3"/>
<path d="M137.02 231.712H148.843L136.314 295.098H124.482L137.02 231.712Z" fill="#193BE3"/>
<path d="M155.549 231.712H165.166L171.538 263.863L177.45 231.712H189.273L176.724 295.098H167.548L161.107 263.047L154.843 295.098H143.02L155.549 231.712Z" fill="#193BE3"/>
<path d="M127.401 336.699H117.353L119.47 326.02H151.42L149.302 336.699H139.234L128.823 389.407H117L127.401 336.699Z" fill="#FD5D91" stroke="#FD5D91"/>
<path d="M155.204 326.02H167.027L161.91 351.815H171.968L177.085 326H188.903L176.379 389.406H164.557L169.85 362.518H159.792L154.498 389.406H142.675L155.204 326.02Z" fill="#FD5D91" stroke="#FD5D91"/>
<path d="M195.614 326.02H223.137L221.024 336.699H205.339L202.251 352.101H215.75L213.632 362.785H200.109L197.006 378.722H212.691L210.608 389.406H183.085L195.614 326.02Z" fill="#FD5D91" stroke="#FD5D91"/>
<path d="M131.401 332.699H121.353L123.47 322.02H155.42L153.302 332.699H143.234L132.823 385.407H121L131.401 332.699Z" fill="#193BE3"/>
<path d="M159.204 322.02H171.027L165.91 347.815H175.968L181.085 322H192.903L180.379 385.406H168.557L173.85 358.518H163.792L158.498 385.406H146.675L159.204 322.02Z" fill="#193BE3"/>
<path d="M199.614 322.02H227.137L225.024 332.699H209.339L206.251 348.101H219.75L217.632 358.785H204.109L201.006 374.722H216.691L214.608 385.406H187.085L199.614 322.02Z" fill="#193BE3"/>
<path d="M101.539 416.712H111.95L116.714 447.335L133.743 416.712H144.154L131.611 480.099H119.788L126.405 446.712L115.553 468.347H109.465L107.421 446.712L100.818 480.099H89L101.539 416.712Z" fill="#FD5D91" stroke="#FD5D91"/>
<path d="M152.433 420.981C155.864 417.519 159.58 416 165.58 416C172.197 416 175.991 418.31 178.108 422.138C179.785 424.987 180.138 427.302 180.138 431.309C180.138 435.226 179.255 441.201 177.756 448.403C173.962 466.655 172.197 471.73 168.138 475.825C164.707 479.288 160.992 480.811 154.992 480.811C148.375 480.811 144.581 478.496 142.463 474.668C140.787 471.819 140.434 469.504 140.434 465.497C140.434 461.58 141.316 455.605 142.816 448.403C146.635 430.24 148.375 425.076 152.433 420.981ZM152.257 465.319C152.257 468.257 153.237 470.127 156.139 470.127C156.855 470.14 157.565 469.995 158.221 469.703C158.876 469.411 159.46 468.978 159.933 468.435C161.962 466.388 163.364 461.758 165.933 448.403C167.08 442.171 168.315 435.315 168.315 431.487C168.315 428.549 167.334 426.679 164.433 426.679C163.717 426.666 163.006 426.811 162.351 427.103C161.696 427.395 161.112 427.828 160.639 428.371C158.609 430.418 157.208 435.048 154.639 448.403C153.497 454.635 152.257 461.491 152.257 465.319Z" fill="#FD5D91" stroke="#FD5D91"/>
<path d="M184.726 416.712H197.784L195.225 461.847L210.754 416.712H223.812L197.872 480.099H185.52L184.726 416.712Z" fill="#FD5D91" stroke="#FD5D91"/>
<path d="M226.282 416.712H253.81L251.693 427.391H236.007L232.919 442.794H246.419L244.301 453.478H230.802L227.714 469.415H243.399L241.282 480.099H213.754L226.282 416.712Z" fill="#FD5D91" stroke="#FD5D91"/>
<path d="M258.575 416.712H268.986L273.751 447.335L290.779 416.712H301.186L288.662 480.099H276.839L283.456 446.712L272.609 468.347H266.521L264.491 446.712L257.874 480.099H246.051L258.575 416.712Z" fill="#FD5D91" stroke="#FD5D91"/>
<path d="M307.901 416.712H335.424L333.306 427.391H317.621L314.533 442.794H327.998L325.885 453.478H312.386L309.298 469.415H324.983L322.861 480.099H295.338L307.901 416.712Z" fill="#FD5D91" stroke="#FD5D91"/>
<path d="M340.188 416.712H349.806L356.178 448.863L362.06 416.712H373.883L361.359 480.099H352.188L345.747 448.047L339.483 480.099H327.66L340.188 416.712Z" fill="#FD5D91" stroke="#FD5D91"/>
<path d="M385.622 427.391H375.545L377.667 416.712H409.602L407.484 427.391H397.426L387.034 480.099H375.216L385.622 427.391Z" fill="#FD5D91" stroke="#FD5D91"/>
<path d="M105.539 412.712H115.95L120.714 443.335L137.743 412.712H148.154L135.611 476.099H123.788L130.405 442.712L119.553 464.347H113.465L111.421 442.712L104.818 476.099H93L105.539 412.712Z" fill="#193BE3"/>
<path d="M156.433 416.981C159.864 413.519 163.58 412 169.58 412C176.197 412 179.991 414.31 182.108 418.138C183.785 420.987 184.138 423.302 184.138 427.309C184.138 431.226 183.255 437.201 181.756 444.403C177.962 462.655 176.197 467.73 172.138 471.825C168.707 475.288 164.992 476.811 158.992 476.811C152.375 476.811 148.581 474.496 146.463 470.668C144.787 467.819 144.434 465.504 144.434 461.497C144.434 457.58 145.316 451.605 146.816 444.403C150.635 426.24 152.375 421.076 156.433 416.981ZM156.257 461.319C156.257 464.257 157.237 466.127 160.139 466.127C160.855 466.14 161.565 465.995 162.221 465.703C162.876 465.411 163.46 464.978 163.933 464.435C165.962 462.388 167.364 457.758 169.933 444.403C171.08 438.171 172.315 431.315 172.315 427.487C172.315 424.549 171.334 422.679 168.433 422.679C167.717 422.666 167.006 422.811 166.351 423.103C165.696 423.395 165.112 423.828 164.639 424.371C162.609 426.418 161.208 431.048 158.639 444.403C157.497 450.635 156.257 457.491 156.257 461.319Z" fill="#193BE3"/>
<path d="M188.726 412.712H201.784L199.225 457.847L214.754 412.712H227.812L201.872 476.099H189.52L188.726 412.712Z" fill="#193BE3"/>
<path d="M230.282 412.712H257.81L255.693 423.391H240.007L236.919 438.794H250.419L248.301 449.478H234.802L231.714 465.415H247.399L245.282 476.099H217.754L230.282 412.712Z" fill="#193BE3"/>
<path d="M262.575 412.712H272.986L277.751 443.335L294.779 412.712H305.186L292.662 476.099H280.839L287.456 442.712L276.609 464.347H270.521L268.491 442.712L261.874 476.099H250.051L262.575 412.712Z" fill="#193BE3"/>
<path d="M311.901 412.712H339.424L337.306 423.391H321.621L318.533 438.794H331.998L329.885 449.478H316.386L313.298 465.415H328.983L326.861 476.099H299.338L311.901 412.712Z" fill="#193BE3"/>
<path d="M344.188 412.712H353.806L360.178 444.863L366.06 412.712H377.883L365.359 476.099H356.188L349.747 444.047L343.483 476.099H331.66L344.188 412.712Z" fill="#193BE3"/>
<path d="M389.622 423.391H379.545L381.667 412.712H413.602L411.484 423.391H401.426L391.034 476.099H379.216L389.622 423.391Z" fill="#193BE3"/>
</svg>
