<svg width="25" height="24" viewBox="0 0 25 24" fill="none" xmlns="http://www.w3.org/2000/svg">
<g clip-path="url(#clip0_101_107)">
<path d="M12.75 24C19.3774 24 24.75 18.6274 24.75 12C24.75 5.37258 19.3774 0 12.75 0C6.12258 0 0.75 5.37258 0.75 12C0.75 18.6274 6.12258 24 12.75 24Z" fill="black"/>
<path fill-rule="evenodd" clip-rule="evenodd" d="M6.18177 11.8733C9.68001 10.3492 12.0127 9.34439 13.1799 8.85893C16.5124 7.47282 17.2049 7.23203 17.6562 7.22408C17.7555 7.22234 17.9775 7.24694 18.1212 7.3636C18.2426 7.46211 18.276 7.59518 18.292 7.68857C18.308 7.78197 18.3279 7.99473 18.3121 8.16097C18.1315 10.0585 17.3501 14.6631 16.9526 16.7883C16.7843 17.6876 16.4531 17.9891 16.1325 18.0186C15.4356 18.0827 14.9064 17.5581 14.2315 17.1157C13.1753 16.4233 12.5787 15.9924 11.5535 15.3168C10.3687 14.536 11.1368 14.1069 11.812 13.4056C11.9887 13.2221 15.0591 10.4293 15.1185 10.176C15.1259 10.1443 15.1328 10.0262 15.0626 9.96384C14.9925 9.90148 14.8889 9.9228 14.8142 9.93976C14.7083 9.96381 13.021 11.079 9.75252 13.2853C9.27361 13.6142 8.83982 13.7744 8.45117 13.766C8.0227 13.7568 7.19851 13.5238 6.58582 13.3246C5.83431 13.0803 5.23704 12.9512 5.28905 12.5363C5.31614 12.3202 5.61371 12.0992 6.18177 11.8733Z" fill="#34FBEB"/>
</g>
<defs>
<clipPath id="clip0_101_107">
<rect width="24" height="24" fill="white" transform="translate(0.75)"/>
</clipPath>
</defs>
</svg>
