<svg width="27" height="24" viewBox="0 0 27 24" fill="none" xmlns="http://www.w3.org/2000/svg">
<g clip-path="url(#clip0_101_93)">
<path d="M1.00439 20.3245C3.86789 20.5258 6.36339 19.83 8.66196 18.0662C7.48896 17.9253 6.46689 17.6192 5.60439 16.9363C4.76489 16.2665 4.12089 15.4313 3.77589 14.2899H5.90339C5.91489 14.2425 5.92639 14.195 5.93789 14.1361C4.76489 13.7954 3.76439 13.183 3.01689 12.207C2.26939 11.2438 1.90283 10.1255 1.86689 8.90072C2.61439 9.11347 3.32739 9.32478 4.05189 9.52459C4.07489 9.47715 4.10939 9.43115 4.13239 9.38372C3.09739 8.51259 2.34989 7.46609 2.07533 6.1134C1.79192 4.79409 1.99136 3.41687 2.63739 2.23215C5.51239 5.66634 9.12196 7.57247 13.5595 7.89015C13.4215 6.77178 13.41 5.73678 13.7895 4.72478C15.1005 1.18422 19.5151 0.0543405 22.2621 2.59584C22.5726 2.87759 22.8371 2.92503 23.1706 2.80715C24.0791 2.47797 24.9747 2.12578 25.9062 1.77215C25.5497 2.93653 24.7792 3.79615 23.8721 4.63134C24.7562 4.39559 25.6417 4.14834 26.5157 3.91259C26.5502 3.94853 26.5847 3.97153 26.6192 4.00747C25.9522 4.71328 25.3082 5.45503 24.5851 6.0904C24.1941 6.43109 24.0676 6.74878 24.0446 7.26628C23.8376 13.0307 21.5261 17.6882 16.6056 20.6192C11.593 23.5948 6.43239 23.418 1.35083 20.5833C1.25883 20.5258 1.17833 20.4539 1.00583 20.3245H1.00439Z" fill="black"/>
</g>
<defs>
<clipPath id="clip0_101_93">
<rect width="25.875" height="23" fill="white" transform="translate(0.875 0.5)"/>
</clipPath>
</defs>
</svg>
