<svg width="105" height="99" viewBox="0 0 105 99" fill="none" xmlns="http://www.w3.org/2000/svg">
<path d="M4.19235 26.2799L4.18099 25.5619C4.15988 24.2276 4.13786 22.8928 4.11583 21.5577C4.05524 17.8845 3.99461 14.2091 3.95275 10.5345C3.94454 9.85884 4.03561 9.18553 4.22304 8.53829L4.19235 26.2799ZM4.19235 26.2799L4.30035 26.2829M4.19235 26.2799L4.30035 26.2829M4.30035 26.2829C4.29854 26.9924 4.29446 27.704 4.29037 28.4169C4.2767 30.8004 4.26295 33.1993 4.33335 35.5915H4.3333L4.33364 35.5998C4.38802 36.9434 4.65399 38.2689 5.12121 39.5222C5.49504 40.5408 6.08978 41.3469 6.89149 41.8986C7.69146 42.449 8.64867 42.7127 9.69498 42.7296L9.69562 42.7296C11.093 42.7511 12.4797 42.4817 13.7758 41.9379C16.9735 40.6249 19.36 38.2431 21.4869 35.7196C22.032 35.0745 22.5593 34.4152 23.0793 33.7651L23.1197 33.7146C23.655 33.0454 24.1831 32.3861 24.7279 31.7448L24.7304 31.7418C24.7577 31.7094 24.7828 31.681 24.8058 31.6563C24.8336 31.6969 24.8641 31.7451 24.8974 31.802L24.8973 31.8021L24.9041 31.8132C25.0508 32.0538 25.1705 32.3123 25.2605 32.5837L25.2604 32.5837L25.2645 32.5956C25.5923 33.5313 25.8657 34.4872 26.0834 35.4582C26.6759 38.7075 27.9909 41.7656 29.9235 44.3818L29.9238 44.3822C31.3509 46.3115 32.923 47.5864 34.7457 48.0364C36.5777 48.4887 38.5138 48.0713 40.5867 46.9303L40.5869 46.9302C45.7313 44.096 49.171 39.7761 49.9919 33.4999L49.9919 33.4994C50.1456 32.3172 50.3151 31.1255 50.4852 29.9286C50.7763 27.8806 51.0696 25.8174 51.2901 23.7612C51.2901 23.7609 51.2902 23.7606 51.2902 23.7603L50.5445 23.6804M4.30035 26.2829L51.8259 15.7896M50.5445 23.6804C50.8185 21.1533 50.9404 18.6046 51.062 16.0639C51.0669 15.9596 51.0719 15.8553 51.0769 15.751M50.5445 23.6804C50.3251 25.727 50.0354 27.7643 49.7457 29.8015C49.5751 31.0013 49.4044 32.201 49.2482 33.4026C48.4622 39.4123 45.1882 43.5389 40.225 46.2733M50.5445 23.6804L40.225 46.2733M51.0769 15.751L51.8258 15.7915C51.8259 15.7908 51.8259 15.7902 51.8259 15.7896M51.0769 15.751C51.1425 14.5376 50.8938 13.3282 50.3575 12.2521M51.0769 15.751L51.8261 15.7869C51.826 15.7878 51.826 15.7887 51.8259 15.7896M51.8259 15.7896L50.3575 12.2521M46.3641 11.3673C47.7523 10.1821 49.5334 10.5861 50.3575 12.2521M46.3641 11.3673L45.8908 10.7856C45.8885 10.7874 45.8862 10.7892 45.884 10.7911C45.8817 10.793 45.8794 10.795 45.8771 10.7969L46.3641 11.3673ZM46.3641 11.3673C45.8026 11.8242 45.3472 12.4098 45.0325 13.0797C44.7178 13.7495 44.5522 14.4861 44.548 15.2335M50.3575 12.2521L44.3537 12.7608C43.9931 13.5284 43.8036 14.3705 43.7981 15.2236M44.548 15.2335L43.7982 15.2184C43.7982 15.2201 43.7981 15.2219 43.7981 15.2236M44.548 15.2335C44.5306 16.0939 44.5237 16.9503 44.5168 17.8054C44.5112 18.5065 44.5056 19.2068 44.4941 19.9077M44.548 15.2335L43.798 15.2294C43.7981 15.2275 43.7981 15.2255 43.7981 15.2236M43.7981 15.2236L44.4941 19.9077M22.1754 23.7004L21.4819 23.4151C21.4818 23.4152 21.4818 23.4153 21.4817 23.4154C21.4816 23.4157 21.4815 23.4159 21.4814 23.4162L22.1754 23.7004ZM22.1754 23.7004C22.7333 22.3382 23.2942 20.9727 23.9535 19.664M22.1754 23.7004C22.0673 23.9634 21.9623 24.229 21.8572 24.495C21.3313 25.8263 20.8022 27.1658 19.846 28.2177C17.8671 30.4665 15.6229 32.4391 13.1681 34.0871M23.9535 19.664L11.9138 33.8624C11.9138 33.8624 11.9148 33.8624 11.9166 33.8626M23.9535 19.664C24.4415 18.6957 25.1673 17.9312 26.2798 17.7242C26.6321 17.6463 26.9979 17.6703 27.3383 17.7938C27.6787 17.9172 27.981 18.1354 28.2131 18.4253C29.0942 19.5111 29.7177 20.8019 30.0323 22.1913C30.4708 23.8394 30.8808 25.4951 31.2908 27.1507L23.9535 19.664ZM13.1681 34.0871L12.7607 33.4574C12.7589 33.4585 12.7572 33.4596 12.7554 33.4608C12.7536 33.462 12.7518 33.4632 12.75 33.4644L13.1681 34.0871ZM13.1681 34.0871C11.7799 34.9852 11.2411 34.7782 10.9876 33.1088C10.6564 31.0282 10.4542 28.9271 10.3822 26.8188M10.3822 26.8188L11.132 26.8015C11.132 26.8001 11.1319 26.7987 11.1319 26.7973M10.3822 26.8188L11.1318 26.7932C11.1318 26.7946 11.1319 26.7959 11.1319 26.7973M10.3822 26.8188C10.3238 24.2849 10.3345 21.7551 10.3452 19.22C10.3513 17.7633 10.3575 16.3049 10.3505 14.8429M11.1319 26.7973C11.203 28.8734 11.4022 30.9423 11.7282 32.991L11.7291 32.9962C11.7886 33.3882 11.8574 33.6362 11.9242 33.7849C11.9385 33.8168 11.9509 33.8403 11.961 33.8572M11.1319 26.7973C11.0738 24.2732 11.0845 21.765 11.0951 19.2397C11.1013 17.7809 11.1075 16.3164 11.1005 14.8398M11.961 33.8572C11.9363 33.862 11.9222 33.8626 11.9166 33.8626M11.961 33.8572C11.9734 33.8782 11.9822 33.8892 11.9862 33.8936M11.961 33.8572C11.9816 33.8531 12.0097 33.8462 12.0465 33.8343L11.9862 33.8936M11.9166 33.8626C11.922 33.8632 11.9345 33.8656 11.952 33.8732C11.9707 33.8814 11.9817 33.8896 11.9862 33.8936M11.9166 33.8626L11.9862 33.8936M11.9862 33.8936C11.9878 33.895 11.9886 33.8959 11.9886 33.896C11.9886 33.896 11.9877 33.8953 11.9862 33.8936ZM11.1005 14.8398L10.3505 14.8429M11.1005 14.8398C11.1 14.7225 11.0996 14.6049 11.0992 14.487C11.0944 13.0817 11.0893 11.6339 10.9495 10.1976C10.9 9.3622 10.6112 8.55822 10.1161 7.89218C9.62008 7.22493 8.93887 6.72608 8.15864 6.46845C7.30726 6.15975 6.44888 6.13341 5.70517 6.52422C4.9623 6.91458 4.48159 7.64374 4.22318 8.5378L11.1005 14.8398ZM10.3505 14.8429C10.35 14.7271 10.3496 14.6114 10.3492 14.4956C10.3443 13.0785 10.3393 11.6599 10.2016 10.2555L11.1005 14.8393L10.3505 14.8429ZM40.225 46.2733C36.2823 48.4434 33.2682 47.6421 30.5267 43.9362L40.225 46.2733ZM44.4941 19.9077C44.4761 23.1416 44.208 26.3685 43.6923 29.5565L42.9532 29.4292L44.4941 19.9077ZM37.9938 39.5625C39.5214 39.1218 40.5293 38.1002 41.3279 36.7714L34.8113 36.8183L34.0986 37.0518C34.26 37.493 34.473 37.9114 34.7325 38.2972C35.6041 39.6861 36.4661 40.0032 37.9938 39.5625Z" fill="white" stroke="white" stroke-width="1.5"/>
<path d="M97.0444 21.625L97.0257 21.6234L97.007 21.6228C94.971 21.5567 93.0913 21.8719 91.3335 22.1667C90.8848 22.242 90.444 22.3159 90.0106 22.3818C86.4546 22.9106 82.9101 23.5029 79.3773 24.1589C76.8901 24.6132 74.4221 25.1827 71.9746 25.7475C71.8553 25.775 71.736 25.8026 71.6167 25.8301C71.0381 25.9306 70.4983 26.1888 70.0506 26.5746L70.5402 27.1427L70.0506 26.5746C69.5969 26.9656 69.2542 27.4732 69.0536 28.0426L69.0502 28.0522L69.0471 28.0619C68.8688 28.6151 68.8168 29.2036 68.8946 29.7805C68.9724 30.3575 69.1782 30.9096 69.4979 31.392C69.8176 31.8744 70.2431 32.2747 70.7425 32.5574C71.2421 32.8401 71.8004 32.9965 72.372 33.0114L72.3826 33.0116L72.3932 33.0116C73.2399 33.0097 74.0861 33.0576 74.9278 33.1552C75.8775 33.3023 76.8115 33.5472 77.7166 33.8866C78.0304 34.0103 78.0942 34.1149 78.1205 34.1713C78.1663 34.2696 78.203 34.4671 78.1581 34.9225C78.0458 36.0608 77.4468 36.7653 76.4509 37.2059C74.9006 37.8653 73.2109 38.0652 71.563 37.7856L71.5549 37.7842L71.5468 37.783C69.1865 37.4352 67.2421 36.158 65.6247 34.2389L65.6245 34.2387C64.1682 32.512 63.2799 30.5873 63.3603 28.305C63.4319 26.3387 64.3032 24.6619 65.4745 23.0221C68.1422 19.2881 71.5657 16.3893 75.3234 13.8789C78.4857 11.7838 82.0481 10.546 85.6967 9.28941C87.1538 8.78833 88.41 9.38957 89.6252 10.6665L89.6259 10.6673C89.8099 10.86 89.8455 11.0055 89.8448 11.1077C89.8439 11.2235 89.7945 11.4043 89.6 11.649C89.4727 11.8052 89.3583 11.9222 89.2241 12.0594C89.1296 12.1559 89.0254 12.2624 88.9 12.3996C88.3489 12.9962 88.0684 13.741 88.1879 14.4874C88.3082 15.2383 88.8111 15.8497 89.542 16.2128C90.1789 16.5474 90.8966 16.6845 91.6093 16.6046C92.3209 16.5247 92.9916 16.2326 93.5432 15.7683C95.5034 14.2152 97.0914 11.1565 95.7016 7.88319L95.7014 7.8827C94.0056 3.89659 90.8339 1.96997 86.9559 1.33643C84.9458 1.00451 83.1007 1.69268 81.4789 2.35744L81.476 2.35863C77.7313 3.91165 74.3077 6.0992 70.9627 8.23655C70.74 8.3788 70.5177 8.52084 70.2957 8.66244L70.2957 8.66244L70.2925 8.66452C67.454 10.4955 64.6778 12.4929 62.2963 15.084L62.2957 15.0847C58.052 19.7133 55.8432 25.1462 56.7171 31.7158C57.2513 35.7658 58.9293 39.2311 62.1036 41.8052L62.1042 41.8057C64.6273 43.8476 67.5003 44.852 70.5844 45.1992C75.0075 45.7619 79.4598 44.4865 82.9963 41.6535C84.1751 40.7286 85.2226 39.5444 85.7971 38.0515C86.3757 36.5476 86.4495 34.7935 85.7831 32.7865C85.5956 32.1142 85.4685 31.4245 85.4037 30.7266L85.4019 30.7073L85.3992 30.6881C85.3981 30.6812 85.3973 30.6746 85.3966 30.6685C85.4261 30.6621 85.4648 30.656 85.5141 30.652L85.5149 30.6519C85.7165 30.6351 85.919 30.6185 86.1221 30.6018C86.8363 30.5433 87.5589 30.4841 88.2799 30.4109C91.7468 30.1133 95.1865 29.5329 98.5679 28.675L98.5764 28.6729L98.5848 28.6705C99.8531 28.3172 101.087 27.8406 102.271 27.2472C103.12 26.826 103.548 26.1398 103.563 25.3764C103.577 24.6851 103.251 24.0516 102.87 23.6203C102.375 23.0396 101.736 22.6068 101.018 22.3736L101.008 22.3706L100.999 22.3679C99.7076 21.9845 98.3829 21.7356 97.0444 21.625Z" fill="white" stroke="white" stroke-width="1.5"/>
<path d="M48.0799 73.681L48.0799 73.681C48.0466 74.7881 48.0014 75.8518 47.957 76.8977C47.861 79.1589 47.7686 81.3365 47.8076 83.6876L47.8076 83.6883C47.8294 85.0836 48.3543 86.0946 49.5255 86.639C50.2958 86.9966 50.7998 87.5474 51.0867 88.2171C51.3606 88.8563 51.4195 89.5621 51.394 90.2352C51.3992 90.94 51.203 91.6333 50.8267 92.225C50.4503 92.8167 49.9095 93.2816 49.2701 93.5529C48.8963 93.7315 48.5003 93.8561 48.093 93.9226L48.0883 93.9233C46.2905 94.2052 44.4545 93.9774 42.7703 93.2649L42.7613 93.2611L42.7524 93.257C40.6018 92.2802 39.9642 90.2419 39.9066 88.3086L39.9065 88.3077C39.844 86.1181 39.8649 83.9149 39.8857 81.7279C39.896 80.6422 39.9062 79.5606 39.9062 78.4866C39.9062 78.015 39.9105 77.5494 39.9148 77.088C39.9261 75.8713 39.937 74.6837 39.8681 73.4914C39.8618 73.3887 39.8519 73.3065 39.8408 73.2417C39.7775 73.2751 39.6996 73.3218 39.6058 73.3859L39.6057 73.386C37.5366 74.8012 35.3506 76.1963 32.8355 76.9392C28.2393 78.2979 23.6719 78.1956 19.4521 75.2521L19.4512 75.2515C18.9241 74.8826 18.4383 74.4686 17.9806 74.0668C17.8828 73.981 17.7867 73.8961 17.6918 73.8122C17.3438 73.5047 17.0107 73.2104 16.6645 72.9318C16.6109 72.898 16.5568 72.8652 16.5022 72.8335C16.4886 72.8911 16.4763 72.9492 16.4654 73.0077C16.4336 74.0272 16.4358 75.0419 16.4381 76.0711C16.439 76.4612 16.4398 76.8533 16.4388 77.2485V77.249C16.4388 80.2694 16.4388 83.293 16.4173 86.3169V86.3298C16.4173 88.0495 16.4173 89.8187 16.2638 91.5705L16.2632 91.5782L16.2623 91.5859C16.1581 92.5464 15.8781 93.4778 15.4365 94.3287L15.4336 94.3342C14.9994 95.1543 14.3172 95.8094 13.4851 96.191C12.6553 96.5717 11.7272 96.6566 10.8449 96.4308C9.56104 96.1312 8.53931 95.2591 8.27103 93.8559L8.27012 93.8511C7.99558 92.3632 7.82859 90.8556 7.77059 89.3412C7.71458 88.0917 7.69756 86.8428 7.68073 85.6075L7.67902 85.482C7.66152 84.201 7.6428 82.9342 7.5808 81.6707C7.45191 79.1061 7.29883 76.5417 7.14461 73.9731L7.12737 73.686C6.97891 71.2138 6.83021 68.7375 6.70228 66.259L48.0799 73.681ZM48.0799 73.681L48.0801 73.673M48.0799 73.681L48.0801 73.673M48.0801 73.673C48.0812 73.6153 48.0824 73.5799 48.0836 73.5447C48.0843 73.5231 48.0851 73.5015 48.0858 73.4749C48.0873 73.4174 48.0877 73.3592 48.0838 73.2882V73.2715V73.2518V73.232V73.2123V73.1926V73.1729V73.1531V73.1334V73.1137V73.094V73.0742V73.0545V73.0348V73.0151V72.9954V72.9756V72.9559V72.9362V72.9165V72.8967V72.877V72.8573V72.8376V72.8178V72.7981V72.7784V72.7587V72.7389V72.7192V72.6995V72.6798V72.66V72.6403V72.6206V72.6008V72.5811V72.5614V72.5417V72.5219V72.5022V72.4825V72.4628V72.443V72.4233V72.4036V72.3839V72.3641V72.3444V72.3247V72.305V72.2852V72.2655V72.2458V72.226V72.2063V72.1866V72.1669V72.1471V72.1274V72.1077V72.088V72.0682V72.0485V72.0288V72.009V71.9893V71.9696V71.9499V71.9301V71.9104V71.8907V71.8709V71.8512V71.8315V71.8118V71.792V71.7723V71.7526V71.7328V71.7131V71.6934V71.6737V71.6539V71.6342V71.6145V71.5947V71.575V71.5553V71.5356V71.5158V71.4961V71.4764V71.4566V71.4369V71.4172V71.3974V71.3777V71.358V71.3383V71.3185V71.2988V71.2791V71.2593V71.2396V71.2199V71.2001V71.1804V71.1607V71.141V71.1212V71.1015V71.0818V71.062V71.0423V71.0226V71.0028V70.9831V70.9634V70.9436V70.9239V70.9042V70.8845V70.8647V70.845V70.8253V70.8055V70.7858V70.7661V70.7463V70.7266V70.7069V70.6871V70.6674V70.6477V70.6279V70.6082V70.5885V70.5688V70.549V70.5293V70.5096V70.4898V70.4701V70.4504V70.4306V70.4109V70.3912V70.3714V70.3517V70.332V70.3122V70.2925V70.2728V70.253V70.2333V70.2136V70.1938V70.1741V70.1544V70.1346V70.1149V70.0952V70.0754V70.0557V70.036V70.0162V69.9965V69.9768V69.957V69.9373V69.9176V69.8979V69.8781V69.8584V69.8387V69.8189V69.7992V69.7795V69.7597V69.74V69.7203V69.7005V69.6808V69.6611V69.6413V69.6216V69.6019V69.5821V69.5624V69.5427V69.5229V69.5032V69.4835V69.4637V69.444V69.4243V69.4045V69.3848V69.3651V69.3453V69.3256V69.3059V69.2861V69.2664V69.2467V69.2269V69.2072V69.1875V69.1677V69.148V69.1283V69.1085V69.0888V69.069V69.0493V69.0296V69.0098V68.9901V68.9704V68.9506V68.9309V68.9112V68.8914V68.8717V68.852V68.8322V68.8125V68.7928V68.773V68.7533V68.7336V68.7138V68.6941V68.6744V68.6546V68.6349V68.6152V68.5954V68.5757V68.556V68.5362V68.5165V68.4968V68.477V68.4573V68.4376V68.4178V68.3981V68.3784V68.3586V68.3389V68.3192V68.2994V68.2797V68.26V68.2402V68.2205V68.2008V68.181V68.1613V68.1416V68.1218V68.1021V68.0823V68.0626V68.0429V68.0231V68.0034V67.9837V67.9639V67.9442V67.9245V67.9047V67.885V67.8653V67.8455V67.8258V67.8061V67.7863V67.7666V67.7469V67.7271V67.7074V67.6877V67.6679V67.6482V67.6285V67.6087V67.589V67.5693V67.5495V67.5298V67.5101V67.4903V67.4706V67.4509V67.4311V67.4114V67.3917V67.3719V67.3522V67.3325V67.3127V67.293V67.2733V67.2535V67.2338V67.2141V67.1943V67.1746V67.1549V67.1351V67.1154V67.0957V67.0759V67.0562V67.0365V67.0167V66.997V66.9773V66.9575V66.9378V66.9181V66.8983V66.8786V66.8589V66.8391V66.8194V66.7997V66.7799V66.7602V66.7405V66.7207V66.701V66.6813V66.6615V66.6418V66.6221V66.6023V66.5826V66.5629V66.5431V66.5234V66.5037V66.4839V66.4642V66.4445V66.4247V66.405V66.3853V66.3655V66.3458V66.3261V66.3063V66.2866V66.2669V66.2471V66.2274V66.2077V66.1879V66.1682V66.1485V66.1287V66.109V66.0893V66.0696V66.0498V66.0301V66.0104V65.9906V65.9709V65.9512V65.9314V65.9117V65.892V65.8722V65.8525V65.8328V65.813V65.7933V65.7736V65.7538V65.7341V65.7144V65.6947V65.6749V65.6552V65.6355V65.6157V65.596V65.5763V65.5565V65.5368V65.5171V65.4973V65.4776V65.4579V65.4381V65.4184V65.3987V65.379V65.3592V65.3395V65.3198V65.3V65.2803V65.2606V65.2408V65.2211V65.2014V65.1817V65.1619V65.1422V65.1225V65.1027V65.083V65.0633V65.0435V65.0238V65.0041V64.9844V64.9646V64.9449V64.9252V64.9054V64.8857V64.866V64.8463V64.8265V64.8068V64.7871V64.7673V64.7476V64.7279V64.7082V64.6884V64.6687V64.649V64.6292V64.6095V64.5898V64.5701V64.5503V64.5306V64.5109V64.4911V64.4714V64.4517V64.432V64.4122V64.3925V64.3728V64.353V64.3333V64.3136V64.2939V64.2741V64.2544V64.2347V64.215V64.1952V64.1755V64.1558V64.1361V64.1163V64.0966V64.0769V64.0571V64.0374V64.0177V63.998V63.9782V63.9585V63.9388V63.9191V63.8993V63.8796V63.8599V63.8402V63.8204V63.8007V63.781V63.7613V63.7415V63.7218V63.7021V63.6824V63.6626V63.6429V63.6232V63.6035V63.5837V63.564V63.5443V63.5246V63.5048V63.4851V63.4654V63.4457V63.4259V63.4062V63.3865V63.3668V63.347V63.3273V63.3076V63.2879V63.2682V63.2484V63.2287L48.0838 63.2118C48.0838 63.2114 48.0838 63.2111 48.0838 63.2107C48.0878 62.073 47.7227 61.1809 47.1324 60.4746C46.5595 59.789 45.8014 59.3108 45.0683 58.9316C44.2293 58.4958 43.4043 58.461 42.6455 58.7292C41.9182 58.9862 41.3072 59.5008 40.8052 60.0668L40.8049 60.0671C40.4334 60.4865 40.0835 60.9269 39.7477 61.3498L39.6907 61.4216C39.333 61.8718 38.9889 62.3018 38.6242 62.704C36.2233 65.3292 33.5552 67.4518 30.2978 68.5787C29.1828 68.9645 28.1673 69.0377 27.24 68.83C26.3134 68.6225 25.4223 68.1227 24.5737 67.2787L24.5686 67.2736L24.5635 67.2687C23.5863 66.333 22.6892 65.3076 21.8827 64.2045C20.7312 62.5582 19.6357 60.9026 18.5343 59.2382C17.6994 57.9766 16.8612 56.7098 15.9926 55.4381L15.9922 55.4375C15.0469 54.0563 13.9561 52.6381 12.4079 51.667L12.4075 51.6667C11.4973 51.0967 10.5314 50.8654 9.59998 51.1C8.67251 51.3337 7.9207 51.9939 7.36157 52.9195L7.36151 52.9194M48.0801 73.673L7.36151 52.9194M7.36151 52.9194L7.35619 52.9285M7.36151 52.9194L7.35619 52.9285M7.35619 52.9285C6.64657 54.1414 6.30466 55.5487 6.37178 56.9653M7.35619 52.9285L6.37178 56.9653M6.37178 56.9653C6.45064 60.0572 6.54048 63.1606 6.70226 66.2586L6.37178 56.9653ZM43.0626 92.5741C41.291 91.7695 40.71 90.0921 40.6562 88.2863L47.9721 93.1824C46.3134 93.4425 44.6188 93.2326 43.0626 92.5741Z" fill="white" stroke="white" stroke-width="1.5"/>
<path d="M70.6529 55.9211L70.6549 55.9097C70.8176 54.9881 71.1708 54.1176 71.6912 53.3717C71.9787 52.9052 72.3803 52.5234 72.863 52.2806L73.2001 52.9505L72.863 52.2806C73.3553 52.0329 73.9054 51.9436 74.4484 52.0298C74.9906 52.1159 75.4887 52.3709 75.8911 52.7507C76.2898 53.127 76.5803 53.6118 76.7423 54.1454C77.0611 55.1099 77.2364 56.1269 77.2618 57.1546C77.3059 58.7562 77.3208 60.3589 77.3356 61.9533C77.3368 62.0838 77.338 62.2142 77.3393 62.3446C77.3555 64.071 77.3745 65.7882 77.4328 67.5008C77.4328 67.5008 77.4328 67.5009 77.4328 67.5009L76.6832 67.5264C76.6909 67.7525 76.6986 67.9787 76.7062 68.2049C76.8393 72.15 76.9729 76.1091 77.6593 79.9869L70.6529 55.9211ZM70.6529 55.9211L70.6513 55.9326C70.3648 57.9103 70.1703 59.9041 70.0686 61.9053C70.0609 61.9867 70.0582 62.0686 70.0604 62.1504L70.6529 55.9211Z" fill="white" stroke="white" stroke-width="1.5"/>
<path d="M1.67675 27.5751L1.6654 26.8571C1.64428 25.5227 1.62226 24.1879 1.60024 22.8528C1.53965 19.1797 1.47901 15.5043 1.43715 11.8297C1.42895 11.154 1.52002 10.4807 1.70745 9.83346L1.67675 27.5751ZM1.67675 27.5751L1.78476 27.5781M1.67675 27.5751L1.78476 27.5781M1.78476 27.5781C1.78294 28.2876 1.77886 28.9991 1.77477 29.712C1.76111 32.0955 1.74736 34.4945 1.81775 36.8867H1.81771L1.81804 36.8949C1.87242 38.2386 2.13839 39.5641 2.60562 40.8173C2.97945 41.836 3.57418 42.6421 4.3759 43.1937C5.17587 43.7442 6.13308 44.0078 7.17939 44.0248L7.18003 44.0248C8.57739 44.0463 9.96411 43.7768 11.2602 43.233C14.4579 41.9201 16.8444 39.5382 18.9713 37.0148C19.5164 36.3697 20.0437 35.7104 20.5637 35.0602L20.6041 35.0098C21.1394 34.3406 21.6675 33.6813 22.2123 33.0399L22.2148 33.037C22.2421 33.0046 22.2672 32.9762 22.2902 32.9515C22.318 32.9921 22.3485 33.0403 22.3818 33.0972L22.3817 33.0973L22.3885 33.1084C22.5352 33.3489 22.6549 33.6075 22.7449 33.8788L22.7448 33.8789L22.7489 33.8907C23.0767 34.8264 23.3501 35.7824 23.5678 36.7534C24.1603 40.0026 25.4753 43.0608 27.4079 45.677L27.4082 45.6774C28.8354 47.6066 30.4074 48.8816 32.2301 49.3316C34.0621 49.7839 35.9982 49.3664 38.0711 48.2255L38.0713 48.2253C43.2157 45.3912 46.6554 41.0713 47.4763 34.7951L47.4763 34.7945C47.6301 33.6124 47.7995 32.4207 47.9696 31.2238C48.2608 29.1758 48.5541 27.1126 48.7745 25.0564C48.7745 25.0561 48.7746 25.0558 48.7746 25.0555L48.0289 24.9756M1.78476 27.5781L49.3104 17.0847M48.0289 24.9756C48.3029 22.4484 48.4248 19.8997 48.5464 17.3591C48.5513 17.2548 48.5563 17.1505 48.5613 17.0462M48.0289 24.9756C47.8095 27.0221 47.5198 29.0594 47.2301 31.0966C47.0595 32.2964 46.8889 33.4962 46.7326 34.6978C45.9466 40.7074 42.6726 44.8341 37.7094 47.5684M48.0289 24.9756L37.7094 47.5684M48.5613 17.0462L49.3102 17.0866C49.3103 17.086 49.3103 17.0854 49.3104 17.0847M48.5613 17.0462C48.6269 15.8328 48.3782 14.6234 47.8419 13.5473M48.5613 17.0462L49.3105 17.0821C49.3104 17.083 49.3104 17.0839 49.3104 17.0847M49.3104 17.0847L47.8419 13.5473M43.8485 12.6625C45.2367 11.4773 47.0179 11.8812 47.8419 13.5473M43.8485 12.6625L43.3752 12.0807C43.3729 12.0826 43.3707 12.0844 43.3684 12.0862C43.3661 12.0882 43.3638 12.0901 43.3615 12.0921L43.8485 12.6625ZM43.8485 12.6625C43.287 13.1193 42.8316 13.7049 42.5169 14.3748C42.2023 15.0447 42.0366 15.7813 42.0324 16.5287M47.8419 13.5473L41.8381 14.056C41.4775 14.8236 41.288 15.6656 41.2825 16.5188M42.0324 16.5287L41.2826 16.5135C41.2826 16.5153 41.2825 16.517 41.2825 16.5188M42.0324 16.5287C42.015 17.3891 42.0081 18.2455 42.0013 19.1006C41.9956 19.8017 41.99 20.5019 41.9786 21.2029M42.0324 16.5287L41.2825 16.5246C41.2825 16.5226 41.2825 16.5207 41.2825 16.5188M41.2825 16.5188L41.9786 21.2029M19.6598 24.9956L18.9663 24.7102C18.9662 24.7103 18.9662 24.7104 18.9661 24.7105C18.966 24.7108 18.9659 24.7111 18.9658 24.7114L19.6598 24.9956ZM19.6598 24.9956C20.2177 23.6334 20.7786 22.2679 21.4379 20.9591M19.6598 24.9956C19.5517 25.2586 19.4467 25.5242 19.3417 25.7902C18.8158 27.1215 18.2866 28.461 17.3304 29.5128C15.3515 31.7617 13.1073 33.7342 10.6525 35.3822M21.4379 20.9591L9.39817 35.1576C9.39819 35.1575 9.39917 35.1575 9.40103 35.1578M21.4379 20.9591C21.9259 19.9909 22.6517 19.2264 23.7642 19.0194C24.1165 18.9414 24.4823 18.9655 24.8227 19.0889C25.1631 19.2124 25.4654 19.4306 25.6975 19.7205C26.5786 20.8063 27.2021 22.0971 27.5167 23.4865C27.9552 25.1345 28.3652 26.7902 28.7752 28.4459L21.4379 20.9591ZM10.6525 35.3822L10.2451 34.7525C10.2433 34.7537 10.2416 34.7548 10.2398 34.7559C10.238 34.7571 10.2362 34.7584 10.2345 34.7596L10.6525 35.3822ZM10.6525 35.3822C9.26431 36.2803 8.72552 36.0734 8.47197 34.404C8.14082 32.3234 7.93861 30.2222 7.86662 28.1139M7.86662 28.1139L8.61642 28.0967C8.61639 28.0953 8.61636 28.0939 8.61632 28.0925M7.86662 28.1139L8.61618 28.0883C8.61623 28.0897 8.61628 28.0911 8.61632 28.0925M7.86662 28.1139C7.80825 25.5801 7.8189 23.0503 7.82958 20.5151C7.83572 19.0585 7.84186 17.6001 7.83492 16.1381M8.61632 28.0925C8.68738 30.1685 8.88659 32.2374 9.21265 34.2861L9.21348 34.2914C9.273 34.6833 9.34177 34.9314 9.40858 35.0801C9.42288 35.112 9.43534 35.1354 9.44537 35.1523M8.61632 28.0925C8.55825 25.5684 8.56886 23.0602 8.57955 20.5349C8.58572 19.0761 8.59192 17.6116 8.58492 16.135M9.44537 35.1523C9.42073 35.1572 9.40664 35.1578 9.40103 35.1578M9.44537 35.1523C9.45784 35.1734 9.46659 35.1843 9.47058 35.1887M9.44537 35.1523C9.46604 35.1483 9.49413 35.1414 9.53087 35.1295L9.47058 35.1887M9.40103 35.1578C9.40636 35.1584 9.41887 35.1607 9.43641 35.1684C9.45512 35.1765 9.46607 35.1848 9.47058 35.1887M9.40103 35.1578L9.47058 35.1887M9.47058 35.1887C9.47223 35.1902 9.47301 35.1911 9.47299 35.1911C9.47297 35.1912 9.47215 35.1905 9.47058 35.1887ZM8.58492 16.135L7.83492 16.1381M8.58492 16.135C8.58443 16.0177 8.58402 15.9001 8.58362 15.7822C8.57876 14.3769 8.57375 12.929 8.43387 11.4927C8.38438 10.6574 8.09561 9.85339 7.6005 9.18735C7.10448 8.5201 6.42328 8.02124 5.64305 7.76362C4.79167 7.45492 3.93329 7.42858 3.18957 7.81938C2.4467 8.20974 1.96599 8.93891 1.70759 9.83296L8.58492 16.135ZM7.83492 16.1381C7.83444 16.0223 7.83404 15.9065 7.83363 15.7908C7.82866 14.3737 7.82368 12.9551 7.68597 11.5507L8.58491 16.1345L7.83492 16.1381ZM37.7094 47.5684C33.7667 49.7386 30.7526 48.9373 28.0111 45.2314L37.7094 47.5684ZM41.9786 21.2029C41.9605 24.4367 41.6924 27.6637 41.1767 30.8517L40.4376 30.7244L41.9786 21.2029ZM35.4782 40.8577C37.0058 40.417 38.0137 39.3953 38.8124 38.0665L32.2957 38.1134L31.583 38.347C31.7445 38.7882 31.9574 39.2065 32.2169 39.5923C33.0885 40.9812 33.9505 41.2984 35.4782 40.8577Z" fill="#193BE3" stroke="#193BE3" stroke-width="1.5"/>
<path d="M94.5288 22.9201L94.5101 22.9186L94.4914 22.918C92.4554 22.8518 90.5757 23.1671 88.8179 23.4619C88.3692 23.5371 87.9284 23.611 87.495 23.6769C83.939 24.2057 80.3945 24.7981 76.8617 25.454C74.3745 25.9083 71.9065 26.4779 69.459 27.0427C69.3397 27.0702 69.2204 27.0977 69.1011 27.1252C68.5225 27.2257 67.9827 27.4839 67.535 27.8697L68.0246 28.4379L67.535 27.8697C67.0813 28.2608 66.7386 28.7684 66.538 29.3378L66.5346 29.3474L66.5315 29.3571C66.3532 29.9103 66.3012 30.4987 66.379 31.0757C66.4568 31.6527 66.6626 32.2048 66.9823 32.6871C67.302 33.1696 67.7275 33.5699 68.2269 33.8525C68.7265 34.1353 69.2848 34.2916 69.8564 34.3065L69.867 34.3068L69.8776 34.3068C70.7243 34.3049 71.5705 34.3528 72.4122 34.4504C73.3619 34.5975 74.296 34.8424 75.201 35.1818C75.5148 35.3055 75.5786 35.41 75.6049 35.4664C75.6507 35.5648 75.6874 35.7622 75.6426 36.2176C75.5302 37.356 74.9312 38.0604 73.9353 38.5011C72.385 39.1605 70.6953 39.3604 69.0474 39.0807L69.0393 39.0794L69.0312 39.0782C66.6709 38.7304 64.7265 37.4532 63.1091 35.5341L63.1089 35.5339C61.6526 33.8072 60.7643 31.8825 60.8448 29.6002C60.9163 27.6339 61.7876 25.957 62.9589 24.3173C65.6266 20.5833 69.0501 17.6845 72.8078 15.174C75.9701 13.079 79.5325 11.8412 83.1811 10.5846C84.6382 10.0835 85.8944 10.6847 87.1096 11.9617L87.1103 11.9625C87.2943 12.1552 87.3299 12.3006 87.3292 12.4029C87.3284 12.5187 87.2789 12.6995 87.0844 12.9442C86.9571 13.1004 86.8427 13.2174 86.7085 13.3545C86.614 13.4511 86.5098 13.5576 86.3845 13.6948C85.8333 14.2913 85.5528 15.0362 85.6723 15.7825C85.7926 16.5334 86.2956 17.1449 87.0264 17.5079C87.6633 17.8426 88.381 17.9797 89.0937 17.8997C89.8053 17.8199 90.476 17.5278 91.0276 17.0635C92.9878 15.5104 94.5758 12.4517 93.186 9.17835L93.1858 9.17787C91.49 5.19176 88.3183 3.26513 84.4403 2.6316C82.4302 2.29967 80.5851 2.98785 78.9633 3.65261L78.9604 3.65379C75.2157 5.20682 71.7921 7.39437 68.4471 9.53171C68.2244 9.67397 68.0021 9.816 67.7801 9.95761L67.7801 9.9576L67.7769 9.95968C64.9384 11.7907 62.1622 13.7881 59.7807 16.3792L59.7801 16.3799C55.5364 21.0085 53.3276 26.4413 54.2015 33.011C54.7357 37.061 56.4137 40.5263 59.588 43.1004L59.5886 43.1009C62.1117 45.1428 64.9847 46.1472 68.0688 46.4944C72.4919 47.057 76.9442 45.7816 80.4807 42.9486C81.6595 42.0237 82.707 40.8396 83.2815 39.3466C83.8601 37.8428 83.9339 36.0886 83.2675 34.0817C83.08 33.4094 82.9529 32.7197 82.8881 32.0218L82.8863 32.0025L82.8836 31.9833C82.8826 31.9763 82.8817 31.9698 82.881 31.9637C82.9105 31.9573 82.9492 31.9512 82.9985 31.9471L82.9993 31.9471C83.2009 31.9302 83.4034 31.9136 83.6066 31.897C84.3207 31.8385 85.0433 31.7793 85.7643 31.706C89.2312 31.4084 92.6709 30.8281 96.0523 29.9702L96.0608 29.968L96.0692 29.9657C97.3375 29.6124 98.5714 29.1358 99.7551 28.5423C100.605 28.1212 101.032 27.4349 101.047 26.6716C101.061 25.9803 100.735 25.3468 100.355 24.9155C99.8597 24.3347 99.2202 23.902 98.5019 23.6687L98.4928 23.6658L98.4837 23.6631C97.192 23.2797 95.8673 23.0308 94.5288 22.9201Z" fill="#193BE3" stroke="#193BE3" stroke-width="1.5"/>
<path d="M45.5643 74.9762L45.5643 74.9762C45.531 76.0833 45.4858 77.147 45.4414 78.1928C45.3454 80.4541 45.253 82.6316 45.292 84.9827L45.292 84.9834C45.3138 86.3788 45.8387 87.3898 47.0099 87.9342C47.7802 88.2918 48.2842 88.8426 48.5711 89.5123C48.845 90.1515 48.9039 90.8573 48.8784 91.5304C48.8836 92.2352 48.6874 92.9285 48.3111 93.5201C47.9347 94.1119 47.3939 94.5768 46.7545 94.848C46.3807 95.0267 45.9847 95.1512 45.5774 95.2177L45.5727 95.2185C43.7749 95.5004 41.9389 95.2726 40.2547 94.56L40.2457 94.5562L40.2368 94.5522C38.0862 93.5754 37.4486 91.537 37.391 89.6038L37.3909 89.6029C37.3284 87.4133 37.3493 85.21 37.3701 83.0231C37.3804 81.9374 37.3906 80.8557 37.3906 79.7817C37.3906 79.3101 37.3949 78.8446 37.3992 78.3831C37.4105 77.1665 37.4214 75.9788 37.3525 74.7865C37.3462 74.6839 37.3363 74.6017 37.3252 74.5369C37.2619 74.5703 37.184 74.6169 37.0902 74.6811L37.0901 74.6811C35.021 76.0964 32.835 77.4915 30.3199 78.2343C25.7237 79.5931 21.1563 79.4907 16.9365 76.5472L16.9356 76.5466C16.4085 76.1778 15.9227 75.7638 15.465 75.3619C15.3672 75.2761 15.2712 75.1912 15.1762 75.1073C14.8282 74.7999 14.4951 74.5056 14.1489 74.227C14.0953 74.1932 14.0412 74.1604 13.9867 74.1286C13.973 74.1863 13.9607 74.2444 13.9498 74.3029C13.918 75.3224 13.9202 76.3371 13.9225 77.3663C13.9234 77.7563 13.9242 78.1485 13.9233 78.5437V78.5442C13.9233 81.5646 13.9233 84.5881 13.9017 87.6121V87.625C13.9017 89.3447 13.9017 91.1138 13.7482 92.8656L13.7476 92.8734L13.7467 92.8811C13.6425 93.8415 13.3625 94.7729 12.9209 95.6239L12.918 95.6294C12.4838 96.4495 11.8016 97.1046 10.9695 97.4862C10.1397 97.8668 9.21158 97.9517 8.32928 97.7259C7.04545 97.4264 6.02372 96.5542 5.75544 95.1511L5.75453 95.1463C5.47998 93.6584 5.31299 92.1508 5.255 90.6364C5.19898 89.3868 5.18197 88.138 5.16514 86.9026L5.16343 86.7772C5.14593 85.4962 5.12721 84.2293 5.06521 82.9659C4.93632 80.4013 4.78323 77.8369 4.62901 75.2682L4.61177 74.9812C4.46332 72.509 4.31461 70.0327 4.18669 67.5542L45.5643 74.9762ZM45.5643 74.9762L45.5645 74.9682M45.5643 74.9762L45.5645 74.9682M45.5645 74.9682C45.5656 74.9105 45.5668 74.875 45.568 74.8399C45.5687 74.8183 45.5695 74.7967 45.5702 74.7701C45.5717 74.7125 45.5721 74.6544 45.5682 74.5833V74.5667V74.5469V74.5272V74.5075V74.4878V74.468V74.4483V74.4286V74.4089V74.3891V74.3694V74.3497V74.33V74.3102V74.2905V74.2708V74.2511V74.2313V74.2116V74.1919V74.1722V74.1524V74.1327V74.113V74.0933V74.0735V74.0538V74.0341V74.0144V73.9946V73.9749V73.9552V73.9355V73.9157V73.896V73.8763V73.8566V73.8368V73.8171V73.7974V73.7777V73.7579V73.7382V73.7185V73.6988V73.679V73.6593V73.6396V73.6198V73.6001V73.5804V73.5607V73.5409V73.5212V73.5015V73.4818V73.462V73.4423V73.4226V73.4028V73.3831V73.3634V73.3437V73.3239V73.3042V73.2845V73.2648V73.245V73.2253V73.2056V73.1858V73.1661V73.1464V73.1267V73.1069V73.0872V73.0675V73.0477V73.028V73.0083V72.9886V72.9688V72.9491V72.9294V72.9096V72.8899V72.8702V72.8504V72.8307V72.811V72.7913V72.7715V72.7518V72.7321V72.7123V72.6926V72.6729V72.6532V72.6334V72.6137V72.594V72.5742V72.5545V72.5348V72.515V72.4953V72.4756V72.4558V72.4361V72.4164V72.3967V72.3769V72.3572V72.3375V72.3177V72.298V72.2783V72.2585V72.2388V72.2191V72.1994V72.1796V72.1599V72.1402V72.1204V72.1007V72.081V72.0612V72.0415V72.0218V72.002V71.9823V71.9626V71.9428V71.9231V71.9034V71.8836V71.8639V71.8442V71.8245V71.8047V71.785V71.7653V71.7455V71.7258V71.7061V71.6863V71.6666V71.6469V71.6271V71.6074V71.5877V71.5679V71.5482V71.5285V71.5087V71.489V71.4693V71.4495V71.4298V71.4101V71.3903V71.3706V71.3509V71.3311V71.3114V71.2917V71.2719V71.2522V71.2325V71.2127V71.193V71.1733V71.1536V71.1338V71.1141V71.0944V71.0746V71.0549V71.0352V71.0154V70.9957V70.976V70.9562V70.9365V70.9168V70.897V70.8773V70.8576V70.8378V70.8181V70.7984V70.7786V70.7589V70.7392V70.7194V70.6997V70.68V70.6602V70.6405V70.6208V70.601V70.5813V70.5616V70.5418V70.5221V70.5023V70.4826V70.4629V70.4431V70.4234V70.4037V70.3839V70.3642V70.3445V70.3247V70.305V70.2853V70.2655V70.2458V70.2261V70.2063V70.1866V70.1669V70.1471V70.1274V70.1077V70.0879V70.0682V70.0485V70.0287V70.009V69.9893V69.9695V69.9498V69.9301V69.9103V69.8906V69.8709V69.8511V69.8314V69.8117V69.7919V69.7722V69.7525V69.7327V69.713V69.6933V69.6735V69.6538V69.6341V69.6143V69.5946V69.5749V69.5551V69.5354V69.5157V69.4959V69.4762V69.4565V69.4367V69.417V69.3972V69.3775V69.3578V69.338V69.3183V69.2986V69.2788V69.2591V69.2394V69.2196V69.1999V69.1802V69.1604V69.1407V69.121V69.1012V69.0815V69.0618V69.042V69.0223V69.0026V68.9828V68.9631V68.9434V68.9236V68.9039V68.8842V68.8644V68.8447V68.825V68.8052V68.7855V68.7658V68.746V68.7263V68.7066V68.6868V68.6671V68.6474V68.6276V68.6079V68.5882V68.5684V68.5487V68.529V68.5092V68.4895V68.4698V68.45V68.4303V68.4106V68.3908V68.3711V68.3514V68.3316V68.3119V68.2922V68.2724V68.2527V68.233V68.2132V68.1935V68.1738V68.154V68.1343V68.1146V68.0948V68.0751V68.0554V68.0356V68.0159V67.9962V67.9764V67.9567V67.937V67.9172V67.8975V67.8778V67.858V67.8383V67.8186V67.7988V67.7791V67.7594V67.7396V67.7199V67.7002V67.6804V67.6607V67.641V67.6212V67.6015V67.5818V67.562V67.5423V67.5226V67.5028V67.4831V67.4634V67.4436V67.4239V67.4042V67.3844V67.3647V67.345V67.3253V67.3055V67.2858V67.2661V67.2463V67.2266V67.2069V67.1871V67.1674V67.1477V67.1279V67.1082V67.0885V67.0687V67.049V67.0293V67.0095V66.9898V66.9701V66.9504V66.9306V66.9109V66.8912V66.8714V66.8517V66.832V66.8122V66.7925V66.7728V66.753V66.7333V66.7136V66.6939V66.6741V66.6544V66.6347V66.6149V66.5952V66.5755V66.5557V66.536V66.5163V66.4966V66.4768V66.4571V66.4374V66.4176V66.3979V66.3782V66.3584V66.3387V66.319V66.2993V66.2795V66.2598V66.2401V66.2203V66.2006V66.1809V66.1611V66.1414V66.1217V66.102V66.0822V66.0625V66.0428V66.023V66.0033V65.9836V65.9639V65.9441V65.9244V65.9047V65.8849V65.8652V65.8455V65.8258V65.806V65.7863V65.7666V65.7469V65.7271V65.7074V65.6877V65.6679V65.6482V65.6285V65.6088V65.589V65.5693V65.5496V65.5299V65.5101V65.4904V65.4707V65.4509V65.4312V65.4115V65.3918V65.372V65.3523V65.3326V65.3129V65.2931V65.2734V65.2537V65.234V65.2142V65.1945V65.1748V65.1551V65.1353V65.1156V65.0959V65.0761V65.0564V65.0367V65.017V64.9972V64.9775V64.9578V64.9381V64.9183V64.8986V64.8789V64.8592V64.8394V64.8197V64.8V64.7803V64.7606V64.7408V64.7211V64.7014V64.6817V64.6619V64.6422V64.6225V64.6028V64.583V64.5633V64.5436V64.5239L45.5682 64.5069C45.5682 64.5066 45.5682 64.5063 45.5682 64.5059C45.5722 63.3682 45.2071 62.4761 44.6168 61.7697C44.0439 61.0841 43.2858 60.606 42.5527 60.2268C41.7137 59.791 40.8887 59.7562 40.1299 60.0244C39.4026 60.2814 38.7916 60.796 38.2896 61.362L38.2893 61.3623C37.9178 61.7816 37.568 62.2221 37.2321 62.6449L37.1751 62.7167C36.8174 63.167 36.4733 63.597 36.1086 63.9991C33.7077 66.6244 31.0396 68.7469 27.7822 69.8739C26.6672 70.2597 25.6517 70.3329 24.7244 70.1252C23.7978 69.9177 22.9067 69.4179 22.0581 68.5738L22.053 68.5688L22.0479 68.5639C21.0707 67.6281 20.1736 66.6028 19.3671 65.4997C18.2156 63.8533 17.1201 62.1978 16.0187 60.5334C15.1838 59.2718 14.3456 58.005 13.477 56.7332L13.4766 56.7326C12.5313 55.3515 11.4405 53.9333 9.89229 52.9622L9.89186 52.9619C8.98175 52.3919 8.01579 52.1605 7.08438 52.3952C6.15692 52.6288 5.4051 53.2891 4.84598 54.2146L4.84592 54.2146M45.5645 74.9682L4.84592 54.2146M4.84592 54.2146L4.84059 54.2237M4.84592 54.2146L4.84059 54.2237M4.84059 54.2237C4.13097 55.4366 3.78906 56.8439 3.85618 58.2605M4.84059 54.2237L3.85618 58.2605M3.85618 58.2605C3.93505 61.3524 4.02488 64.4557 4.18666 67.5537L3.85618 58.2605ZM40.547 93.8693C38.7754 93.0646 38.1944 91.3873 38.1406 89.5815L45.4566 94.4775C43.7978 94.7377 42.1032 94.5277 40.547 93.8693Z" fill="#193BE3" stroke="#193BE3" stroke-width="1.5"/>
<path d="M68.1373 57.2163L68.1393 57.2048C68.3021 56.2833 68.6552 55.4128 69.1756 54.6668C69.4631 54.2004 69.8647 53.8186 70.3475 53.5757C70.8397 53.3281 71.3898 53.2388 71.9328 53.325C72.475 53.4111 72.9731 53.6661 73.3755 54.0459C73.7742 54.4222 74.0647 54.9069 74.2267 55.4405C74.5455 56.4051 74.7208 57.422 74.7462 58.4498C74.7903 60.0514 74.8052 61.654 74.82 63.2484C74.8212 63.3789 74.8224 63.5094 74.8237 63.6398C74.8399 65.3662 74.8589 67.0834 74.9172 68.796C74.9172 68.796 74.9172 68.7961 74.9172 68.7961L74.1676 68.8216C74.1753 69.0477 74.183 69.2739 74.1906 69.5001C74.3237 73.4452 74.4573 77.4043 75.1438 81.2821L68.1373 57.2163ZM68.1373 57.2163L68.1357 57.2277C67.8492 59.2055 67.6547 61.1992 67.553 63.2005C67.5453 63.2819 67.5426 63.3638 67.5449 63.4456L68.1373 57.2163Z" fill="#193BE3" stroke="#193BE3" stroke-width="1.5"/>
<path d="M4.19235 26.2799L4.18099 25.5619C4.15988 24.2276 4.13786 22.8928 4.11583 21.5577C4.05524 17.8845 3.99461 14.2091 3.95275 10.5345C3.94454 9.85884 4.03561 9.18553 4.22304 8.53829L4.19235 26.2799ZM4.19235 26.2799L4.30035 26.2829M4.19235 26.2799L4.30035 26.2829M4.30035 26.2829C4.29854 26.9924 4.29446 27.704 4.29037 28.4169C4.2767 30.8004 4.26295 33.1993 4.33335 35.5915H4.3333L4.33364 35.5998C4.38802 36.9434 4.65399 38.2689 5.12121 39.5222C5.49504 40.5408 6.08978 41.3469 6.89149 41.8986C7.69146 42.449 8.64867 42.7127 9.69498 42.7296L9.69562 42.7296C11.093 42.7511 12.4797 42.4817 13.7758 41.9379C16.9735 40.6249 19.36 38.2431 21.4869 35.7196C22.032 35.0745 22.5593 34.4152 23.0793 33.7651L23.1197 33.7146C23.655 33.0454 24.1831 32.3861 24.7279 31.7448L24.7304 31.7418C24.7577 31.7094 24.7828 31.681 24.8058 31.6563C24.8336 31.6969 24.8641 31.7451 24.8974 31.802L24.8973 31.8021L24.9041 31.8132C25.0508 32.0538 25.1705 32.3123 25.2605 32.5837L25.2604 32.5837L25.2645 32.5956C25.5923 33.5313 25.8657 34.4872 26.0834 35.4582C26.6759 38.7075 27.9909 41.7656 29.9235 44.3818L29.9238 44.3822C31.3509 46.3115 32.923 47.5864 34.7457 48.0364C36.5777 48.4887 38.5138 48.0713 40.5867 46.9303L40.5869 46.9302C45.7313 44.096 49.171 39.7761 49.9919 33.4999L49.9919 33.4994C50.1456 32.3172 50.3151 31.1255 50.4852 29.9286C50.7763 27.8806 51.0696 25.8174 51.2901 23.7612C51.2901 23.7609 51.2902 23.7606 51.2902 23.7603L50.5445 23.6804M4.30035 26.2829L51.8259 15.7896M50.5445 23.6804C50.8185 21.1533 50.9404 18.6046 51.062 16.0639C51.0669 15.9596 51.0719 15.8553 51.0769 15.751M50.5445 23.6804C50.3251 25.727 50.0354 27.7643 49.7457 29.8015C49.5751 31.0013 49.4044 32.201 49.2482 33.4026C48.4622 39.4123 45.1882 43.5389 40.225 46.2733M50.5445 23.6804L40.225 46.2733M51.0769 15.751L51.8258 15.7915C51.8259 15.7908 51.8259 15.7902 51.8259 15.7896M51.0769 15.751C51.1425 14.5376 50.8938 13.3282 50.3575 12.2521M51.0769 15.751L51.8261 15.7869C51.826 15.7878 51.826 15.7887 51.8259 15.7896M51.8259 15.7896L50.3575 12.2521M46.3641 11.3673C47.7523 10.1821 49.5334 10.5861 50.3575 12.2521M46.3641 11.3673L45.8908 10.7856C45.8885 10.7874 45.8862 10.7892 45.884 10.7911C45.8817 10.793 45.8794 10.795 45.8771 10.7969L46.3641 11.3673ZM46.3641 11.3673C45.8026 11.8242 45.3472 12.4098 45.0325 13.0797C44.7178 13.7495 44.5522 14.4861 44.548 15.2335M50.3575 12.2521L44.3537 12.7608C43.9931 13.5284 43.8036 14.3705 43.7981 15.2236M44.548 15.2335L43.7982 15.2184C43.7982 15.2201 43.7981 15.2219 43.7981 15.2236M44.548 15.2335C44.5306 16.0939 44.5237 16.9503 44.5168 17.8054C44.5112 18.5065 44.5056 19.2068 44.4941 19.9077M44.548 15.2335L43.798 15.2294C43.7981 15.2275 43.7981 15.2255 43.7981 15.2236M43.7981 15.2236L44.4941 19.9077M22.1754 23.7004L21.4819 23.4151C21.4818 23.4152 21.4818 23.4153 21.4817 23.4154C21.4816 23.4157 21.4815 23.4159 21.4814 23.4162L22.1754 23.7004ZM22.1754 23.7004C22.7333 22.3382 23.2942 20.9727 23.9535 19.664M22.1754 23.7004C22.0673 23.9634 21.9623 24.229 21.8572 24.495C21.3313 25.8263 20.8022 27.1658 19.846 28.2177C17.8671 30.4665 15.6229 32.4391 13.1681 34.0871M23.9535 19.664L11.9138 33.8624C11.9138 33.8624 11.9148 33.8624 11.9166 33.8626M23.9535 19.664C24.4415 18.6957 25.1673 17.9312 26.2798 17.7242C26.6321 17.6463 26.9979 17.6703 27.3383 17.7938C27.6787 17.9172 27.981 18.1354 28.2131 18.4253C29.0942 19.5111 29.7177 20.8019 30.0323 22.1913C30.4708 23.8394 30.8808 25.4951 31.2908 27.1507L23.9535 19.664ZM13.1681 34.0871L12.7607 33.4574C12.7589 33.4585 12.7572 33.4596 12.7554 33.4608C12.7536 33.462 12.7518 33.4632 12.75 33.4644L13.1681 34.0871ZM13.1681 34.0871C11.7799 34.9852 11.2411 34.7782 10.9876 33.1088C10.6564 31.0282 10.4542 28.9271 10.3822 26.8188M10.3822 26.8188L11.132 26.8015C11.132 26.8001 11.1319 26.7987 11.1319 26.7973M10.3822 26.8188L11.1318 26.7932C11.1318 26.7946 11.1319 26.7959 11.1319 26.7973M10.3822 26.8188C10.3238 24.2849 10.3345 21.7551 10.3452 19.22C10.3513 17.7633 10.3575 16.3049 10.3505 14.8429M11.1319 26.7973C11.203 28.8734 11.4022 30.9423 11.7282 32.991L11.7291 32.9962C11.7886 33.3882 11.8574 33.6362 11.9242 33.7849C11.9385 33.8168 11.9509 33.8403 11.961 33.8572M11.1319 26.7973C11.0738 24.2732 11.0845 21.765 11.0951 19.2397C11.1013 17.7809 11.1075 16.3164 11.1005 14.8398M11.961 33.8572C11.9363 33.862 11.9222 33.8626 11.9166 33.8626M11.961 33.8572C11.9734 33.8782 11.9822 33.8892 11.9862 33.8936M11.961 33.8572C11.9816 33.8531 12.0097 33.8462 12.0465 33.8343L11.9862 33.8936M11.9166 33.8626C11.922 33.8632 11.9345 33.8656 11.952 33.8732C11.9707 33.8814 11.9817 33.8896 11.9862 33.8936M11.9166 33.8626L11.9862 33.8936M11.9862 33.8936C11.9878 33.895 11.9886 33.8959 11.9886 33.896C11.9886 33.896 11.9877 33.8953 11.9862 33.8936ZM11.1005 14.8398L10.3505 14.8429M11.1005 14.8398C11.1 14.7225 11.0996 14.6049 11.0992 14.487C11.0944 13.0817 11.0893 11.6339 10.9495 10.1976C10.9 9.3622 10.6112 8.55822 10.1161 7.89218C9.62008 7.22493 8.93887 6.72608 8.15864 6.46845C7.30726 6.15975 6.44888 6.13341 5.70517 6.52422C4.9623 6.91458 4.48159 7.64374 4.22318 8.5378L11.1005 14.8398ZM10.3505 14.8429C10.35 14.7271 10.3496 14.6114 10.3492 14.4956C10.3443 13.0785 10.3393 11.6599 10.2016 10.2555L11.1005 14.8393L10.3505 14.8429ZM40.225 46.2733C36.2823 48.4434 33.2682 47.6421 30.5267 43.9362L40.225 46.2733ZM44.4941 19.9077C44.4761 23.1416 44.208 26.3685 43.6923 29.5565L42.9532 29.4292L44.4941 19.9077ZM37.9938 39.5625C39.5214 39.1218 40.5293 38.1002 41.3279 36.7714L34.8113 36.8183L34.0986 37.0518C34.26 37.493 34.473 37.9114 34.7325 38.2972C35.6041 39.6861 36.4661 40.0032 37.9938 39.5625Z" fill="white" stroke="white" stroke-width="1.5"/>
<path d="M97.0444 21.625L97.0257 21.6234L97.007 21.6228C94.971 21.5567 93.0913 21.8719 91.3335 22.1667C90.8848 22.242 90.444 22.3159 90.0106 22.3818C86.4546 22.9106 82.9101 23.5029 79.3773 24.1589C76.8901 24.6132 74.4221 25.1827 71.9746 25.7475C71.8553 25.775 71.736 25.8026 71.6167 25.8301C71.0381 25.9306 70.4983 26.1888 70.0506 26.5746L70.5402 27.1427L70.0506 26.5746C69.5969 26.9656 69.2542 27.4732 69.0536 28.0426L69.0502 28.0522L69.0471 28.0619C68.8688 28.6151 68.8168 29.2036 68.8946 29.7805C68.9724 30.3575 69.1782 30.9096 69.4979 31.392C69.8176 31.8744 70.2431 32.2747 70.7425 32.5574C71.2421 32.8401 71.8004 32.9965 72.372 33.0114L72.3826 33.0116L72.3932 33.0116C73.2399 33.0097 74.0861 33.0576 74.9278 33.1552C75.8775 33.3023 76.8115 33.5472 77.7166 33.8866C78.0304 34.0103 78.0942 34.1149 78.1205 34.1713C78.1663 34.2696 78.203 34.4671 78.1581 34.9225C78.0458 36.0608 77.4468 36.7653 76.4509 37.2059C74.9006 37.8653 73.2109 38.0652 71.563 37.7856L71.5549 37.7842L71.5468 37.783C69.1865 37.4352 67.2421 36.158 65.6247 34.2389L65.6245 34.2387C64.1682 32.512 63.2799 30.5873 63.3603 28.305C63.4319 26.3387 64.3032 24.6619 65.4745 23.0221C68.1422 19.2881 71.5657 16.3893 75.3234 13.8789C78.4857 11.7838 82.0481 10.546 85.6967 9.28941C87.1538 8.78833 88.41 9.38957 89.6252 10.6665L89.6259 10.6673C89.8099 10.86 89.8455 11.0055 89.8448 11.1077C89.8439 11.2235 89.7945 11.4043 89.6 11.649C89.4727 11.8052 89.3583 11.9222 89.2241 12.0594C89.1296 12.1559 89.0254 12.2624 88.9 12.3996C88.3489 12.9962 88.0684 13.741 88.1879 14.4874C88.3082 15.2383 88.8111 15.8497 89.542 16.2128C90.1789 16.5474 90.8966 16.6845 91.6093 16.6046C92.3209 16.5247 92.9916 16.2326 93.5432 15.7683C95.5034 14.2152 97.0914 11.1565 95.7016 7.88319L95.7014 7.8827C94.0056 3.89659 90.8339 1.96997 86.9559 1.33643C84.9458 1.00451 83.1007 1.69268 81.4789 2.35744L81.476 2.35863C77.7313 3.91165 74.3077 6.0992 70.9627 8.23655C70.74 8.3788 70.5177 8.52084 70.2957 8.66244L70.2957 8.66244L70.2925 8.66452C67.454 10.4955 64.6778 12.4929 62.2963 15.084L62.2957 15.0847C58.052 19.7133 55.8432 25.1462 56.7171 31.7158C57.2513 35.7658 58.9293 39.2311 62.1036 41.8052L62.1042 41.8057C64.6273 43.8476 67.5003 44.852 70.5844 45.1992C75.0075 45.7619 79.4598 44.4865 82.9963 41.6535C84.1751 40.7286 85.2226 39.5444 85.7971 38.0515C86.3757 36.5476 86.4495 34.7935 85.7831 32.7865C85.5956 32.1142 85.4685 31.4245 85.4037 30.7266L85.4019 30.7073L85.3992 30.6881C85.3981 30.6812 85.3973 30.6746 85.3966 30.6685C85.4261 30.6621 85.4648 30.656 85.5141 30.652L85.5149 30.6519C85.7165 30.6351 85.919 30.6185 86.1221 30.6018C86.8363 30.5433 87.5589 30.4841 88.2799 30.4109C91.7468 30.1133 95.1865 29.5329 98.5679 28.675L98.5764 28.6729L98.5848 28.6705C99.8531 28.3172 101.087 27.8406 102.271 27.2472C103.12 26.826 103.548 26.1398 103.563 25.3764C103.577 24.6851 103.251 24.0516 102.87 23.6203C102.375 23.0396 101.736 22.6068 101.018 22.3736L101.008 22.3706L100.999 22.3679C99.7076 21.9845 98.3829 21.7356 97.0444 21.625Z" fill="white" stroke="white" stroke-width="1.5"/>
<path d="M48.0799 73.681L48.0799 73.681C48.0466 74.7881 48.0014 75.8518 47.957 76.8977C47.861 79.1589 47.7686 81.3365 47.8076 83.6876L47.8076 83.6883C47.8294 85.0836 48.3543 86.0946 49.5255 86.639C50.2958 86.9966 50.7998 87.5474 51.0867 88.2171C51.3606 88.8563 51.4195 89.5621 51.394 90.2352C51.3992 90.94 51.203 91.6333 50.8267 92.225C50.4503 92.8167 49.9095 93.2816 49.2701 93.5529C48.8963 93.7315 48.5003 93.8561 48.093 93.9226L48.0883 93.9233C46.2905 94.2052 44.4545 93.9774 42.7703 93.2649L42.7613 93.2611L42.7524 93.257C40.6018 92.2802 39.9642 90.2419 39.9066 88.3086L39.9065 88.3077C39.844 86.1181 39.8649 83.9149 39.8857 81.7279C39.896 80.6422 39.9062 79.5606 39.9062 78.4866C39.9062 78.015 39.9105 77.5494 39.9148 77.088C39.9261 75.8713 39.937 74.6837 39.8681 73.4914C39.8618 73.3887 39.8519 73.3065 39.8408 73.2417C39.7775 73.2751 39.6996 73.3218 39.6058 73.3859L39.6057 73.386C37.5366 74.8012 35.3506 76.1963 32.8355 76.9392C28.2393 78.2979 23.6719 78.1956 19.4521 75.2521L19.4512 75.2515C18.9241 74.8826 18.4383 74.4686 17.9806 74.0668C17.8828 73.981 17.7867 73.8961 17.6918 73.8122C17.3438 73.5047 17.0107 73.2104 16.6645 72.9318C16.6109 72.898 16.5568 72.8652 16.5022 72.8335C16.4886 72.8911 16.4763 72.9492 16.4654 73.0077C16.4336 74.0272 16.4358 75.0419 16.4381 76.0711C16.439 76.4612 16.4398 76.8533 16.4388 77.2485V77.249C16.4388 80.2694 16.4388 83.293 16.4173 86.3169V86.3298C16.4173 88.0495 16.4173 89.8187 16.2638 91.5705L16.2632 91.5782L16.2623 91.5859C16.1581 92.5464 15.8781 93.4778 15.4365 94.3287L15.4336 94.3342C14.9994 95.1543 14.3172 95.8094 13.4851 96.191C12.6553 96.5717 11.7272 96.6566 10.8449 96.4308C9.56104 96.1312 8.53931 95.2591 8.27103 93.8559L8.27012 93.8511C7.99558 92.3632 7.82859 90.8556 7.77059 89.3412C7.71458 88.0917 7.69756 86.8428 7.68073 85.6075L7.67902 85.482C7.66152 84.201 7.6428 82.9342 7.5808 81.6707C7.45191 79.1061 7.29883 76.5417 7.14461 73.9731L7.12737 73.686C6.97891 71.2138 6.83021 68.7375 6.70228 66.259L48.0799 73.681ZM48.0799 73.681L48.0801 73.673M48.0799 73.681L48.0801 73.673M48.0801 73.673C48.0812 73.6153 48.0824 73.5799 48.0836 73.5447C48.0843 73.5231 48.0851 73.5015 48.0858 73.4749C48.0873 73.4174 48.0877 73.3592 48.0838 73.2882V73.2715V73.2518V73.232V73.2123V73.1926V73.1729V73.1531V73.1334V73.1137V73.094V73.0742V73.0545V73.0348V73.0151V72.9954V72.9756V72.9559V72.9362V72.9165V72.8967V72.877V72.8573V72.8376V72.8178V72.7981V72.7784V72.7587V72.7389V72.7192V72.6995V72.6798V72.66V72.6403V72.6206V72.6008V72.5811V72.5614V72.5417V72.5219V72.5022V72.4825V72.4628V72.443V72.4233V72.4036V72.3839V72.3641V72.3444V72.3247V72.305V72.2852V72.2655V72.2458V72.226V72.2063V72.1866V72.1669V72.1471V72.1274V72.1077V72.088V72.0682V72.0485V72.0288V72.009V71.9893V71.9696V71.9499V71.9301V71.9104V71.8907V71.8709V71.8512V71.8315V71.8118V71.792V71.7723V71.7526V71.7328V71.7131V71.6934V71.6737V71.6539V71.6342V71.6145V71.5947V71.575V71.5553V71.5356V71.5158V71.4961V71.4764V71.4566V71.4369V71.4172V71.3974V71.3777V71.358V71.3383V71.3185V71.2988V71.2791V71.2593V71.2396V71.2199V71.2001V71.1804V71.1607V71.141V71.1212V71.1015V71.0818V71.062V71.0423V71.0226V71.0028V70.9831V70.9634V70.9436V70.9239V70.9042V70.8845V70.8647V70.845V70.8253V70.8055V70.7858V70.7661V70.7463V70.7266V70.7069V70.6871V70.6674V70.6477V70.6279V70.6082V70.5885V70.5688V70.549V70.5293V70.5096V70.4898V70.4701V70.4504V70.4306V70.4109V70.3912V70.3714V70.3517V70.332V70.3122V70.2925V70.2728V70.253V70.2333V70.2136V70.1938V70.1741V70.1544V70.1346V70.1149V70.0952V70.0754V70.0557V70.036V70.0162V69.9965V69.9768V69.957V69.9373V69.9176V69.8979V69.8781V69.8584V69.8387V69.8189V69.7992V69.7795V69.7597V69.74V69.7203V69.7005V69.6808V69.6611V69.6413V69.6216V69.6019V69.5821V69.5624V69.5427V69.5229V69.5032V69.4835V69.4637V69.444V69.4243V69.4045V69.3848V69.3651V69.3453V69.3256V69.3059V69.2861V69.2664V69.2467V69.2269V69.2072V69.1875V69.1677V69.148V69.1283V69.1085V69.0888V69.069V69.0493V69.0296V69.0098V68.9901V68.9704V68.9506V68.9309V68.9112V68.8914V68.8717V68.852V68.8322V68.8125V68.7928V68.773V68.7533V68.7336V68.7138V68.6941V68.6744V68.6546V68.6349V68.6152V68.5954V68.5757V68.556V68.5362V68.5165V68.4968V68.477V68.4573V68.4376V68.4178V68.3981V68.3784V68.3586V68.3389V68.3192V68.2994V68.2797V68.26V68.2402V68.2205V68.2008V68.181V68.1613V68.1416V68.1218V68.1021V68.0823V68.0626V68.0429V68.0231V68.0034V67.9837V67.9639V67.9442V67.9245V67.9047V67.885V67.8653V67.8455V67.8258V67.8061V67.7863V67.7666V67.7469V67.7271V67.7074V67.6877V67.6679V67.6482V67.6285V67.6087V67.589V67.5693V67.5495V67.5298V67.5101V67.4903V67.4706V67.4509V67.4311V67.4114V67.3917V67.3719V67.3522V67.3325V67.3127V67.293V67.2733V67.2535V67.2338V67.2141V67.1943V67.1746V67.1549V67.1351V67.1154V67.0957V67.0759V67.0562V67.0365V67.0167V66.997V66.9773V66.9575V66.9378V66.9181V66.8983V66.8786V66.8589V66.8391V66.8194V66.7997V66.7799V66.7602V66.7405V66.7207V66.701V66.6813V66.6615V66.6418V66.6221V66.6023V66.5826V66.5629V66.5431V66.5234V66.5037V66.4839V66.4642V66.4445V66.4247V66.405V66.3853V66.3655V66.3458V66.3261V66.3063V66.2866V66.2669V66.2471V66.2274V66.2077V66.1879V66.1682V66.1485V66.1287V66.109V66.0893V66.0696V66.0498V66.0301V66.0104V65.9906V65.9709V65.9512V65.9314V65.9117V65.892V65.8722V65.8525V65.8328V65.813V65.7933V65.7736V65.7538V65.7341V65.7144V65.6947V65.6749V65.6552V65.6355V65.6157V65.596V65.5763V65.5565V65.5368V65.5171V65.4973V65.4776V65.4579V65.4381V65.4184V65.3987V65.379V65.3592V65.3395V65.3198V65.3V65.2803V65.2606V65.2408V65.2211V65.2014V65.1817V65.1619V65.1422V65.1225V65.1027V65.083V65.0633V65.0435V65.0238V65.0041V64.9844V64.9646V64.9449V64.9252V64.9054V64.8857V64.866V64.8463V64.8265V64.8068V64.7871V64.7673V64.7476V64.7279V64.7082V64.6884V64.6687V64.649V64.6292V64.6095V64.5898V64.5701V64.5503V64.5306V64.5109V64.4911V64.4714V64.4517V64.432V64.4122V64.3925V64.3728V64.353V64.3333V64.3136V64.2939V64.2741V64.2544V64.2347V64.215V64.1952V64.1755V64.1558V64.1361V64.1163V64.0966V64.0769V64.0571V64.0374V64.0177V63.998V63.9782V63.9585V63.9388V63.9191V63.8993V63.8796V63.8599V63.8402V63.8204V63.8007V63.781V63.7613V63.7415V63.7218V63.7021V63.6824V63.6626V63.6429V63.6232V63.6035V63.5837V63.564V63.5443V63.5246V63.5048V63.4851V63.4654V63.4457V63.4259V63.4062V63.3865V63.3668V63.347V63.3273V63.3076V63.2879V63.2682V63.2484V63.2287L48.0838 63.2118C48.0838 63.2114 48.0838 63.2111 48.0838 63.2107C48.0878 62.073 47.7227 61.1809 47.1324 60.4746C46.5595 59.789 45.8014 59.3108 45.0683 58.9316C44.2293 58.4958 43.4043 58.461 42.6455 58.7292C41.9182 58.9862 41.3072 59.5008 40.8052 60.0668L40.8049 60.0671C40.4334 60.4865 40.0835 60.9269 39.7477 61.3498L39.6907 61.4216C39.333 61.8718 38.9889 62.3018 38.6242 62.704C36.2233 65.3292 33.5552 67.4518 30.2978 68.5787C29.1828 68.9645 28.1673 69.0377 27.24 68.83C26.3134 68.6225 25.4223 68.1227 24.5737 67.2787L24.5686 67.2736L24.5635 67.2687C23.5863 66.333 22.6892 65.3076 21.8827 64.2045C20.7312 62.5582 19.6357 60.9026 18.5343 59.2382C17.6994 57.9766 16.8612 56.7098 15.9926 55.4381L15.9922 55.4375C15.0469 54.0563 13.9561 52.6381 12.4079 51.667L12.4075 51.6667C11.4973 51.0967 10.5314 50.8654 9.59998 51.1C8.67251 51.3337 7.9207 51.9939 7.36157 52.9195L7.36151 52.9194M48.0801 73.673L7.36151 52.9194M7.36151 52.9194L7.35619 52.9285M7.36151 52.9194L7.35619 52.9285M7.35619 52.9285C6.64657 54.1414 6.30466 55.5487 6.37178 56.9653M7.35619 52.9285L6.37178 56.9653M6.37178 56.9653C6.45064 60.0572 6.54048 63.1606 6.70226 66.2586L6.37178 56.9653ZM43.0626 92.5741C41.291 91.7695 40.71 90.0921 40.6562 88.2863L47.9721 93.1824C46.3134 93.4425 44.6188 93.2326 43.0626 92.5741Z" fill="white" stroke="white" stroke-width="1.5"/>
<path d="M70.6529 55.9211L70.6549 55.9097C70.8176 54.9881 71.1708 54.1176 71.6912 53.3717C71.9787 52.9052 72.3803 52.5234 72.863 52.2806L73.2001 52.9505L72.863 52.2806C73.3553 52.0329 73.9054 51.9436 74.4484 52.0298C74.9906 52.1159 75.4887 52.3709 75.8911 52.7507C76.2898 53.127 76.5803 53.6118 76.7423 54.1454C77.0611 55.1099 77.2364 56.1269 77.2618 57.1546C77.3059 58.7562 77.3208 60.3589 77.3356 61.9533C77.3368 62.0838 77.338 62.2142 77.3393 62.3446C77.3555 64.071 77.3745 65.7882 77.4328 67.5008C77.4328 67.5008 77.4328 67.5009 77.4328 67.5009L76.6832 67.5264C76.6909 67.7525 76.6986 67.9787 76.7062 68.2049C76.8393 72.15 76.9729 76.1091 77.6593 79.9869L70.6529 55.9211ZM70.6529 55.9211L70.6513 55.9326C70.3648 57.9103 70.1703 59.9041 70.0686 61.9053C70.0609 61.9867 70.0582 62.0686 70.0604 62.1504L70.6529 55.9211Z" fill="white" stroke="white" stroke-width="1.5"/>
</svg>
